<svg width="456" height="456" viewBox="0 0 456 456" fill="none" xmlns="http://www.w3.org/2000/svg">
<path d="M228 435.87C346.663 435.87 442.858 380.332 442.858 311.822C442.858 243.312 346.663 187.773 228 187.773C109.337 187.773 13.1418 243.312 13.1418 311.822C13.1418 380.332 109.337 435.87 228 435.87Z" fill="white"/>
<path d="M183.537 405.828C224.457 405.828 257.629 386.677 257.629 363.052C257.629 339.427 224.457 320.275 183.537 320.275C142.617 320.275 109.445 339.427 109.445 363.052C109.445 386.677 142.617 405.828 183.537 405.828Z" fill="#E0E0E0"/>
<path d="M394.236 309.535L385.548 304.519C385.548 304.519 383.419 285.912 384.836 271.502C386.825 251.254 399.902 226.89 415.503 232.612C431.102 238.334 408.35 258.955 403.285 276.13C398.22 293.304 394.236 309.535 394.236 309.535Z" fill="#1B77BB"/>
<path opacity="0.15" d="M394.236 309.535L385.548 304.519C385.548 304.519 383.419 285.912 384.836 271.502C386.825 251.254 399.902 226.89 415.503 232.612C431.102 238.334 408.35 258.955 403.285 276.13C398.22 293.304 394.236 309.535 394.236 309.535Z" fill="black"/>
<path d="M389.667 307.423C389.672 307.423 389.678 307.423 389.685 307.423C389.975 307.413 390.203 307.17 390.193 306.88C388.667 261.888 411.064 239.256 411.29 239.033C411.497 238.829 411.5 238.496 411.296 238.29C411.089 238.083 410.757 238.08 410.551 238.284C410.322 238.511 387.6 261.468 389.14 306.917C389.15 307.2 389.384 307.423 389.667 307.423Z" fill="white"/>
<path d="M399.698 312.662L393.515 309.092C393.515 309.092 392.464 296.324 398.724 280.814C404.173 267.311 417.695 256.109 424.496 258.463C431.297 260.817 431.128 265.639 427.812 270.698C424.497 275.757 404.324 287.815 399.698 312.662Z" fill="#1B77BB"/>
<path d="M396.437 311.306H396.44C396.73 311.304 396.965 311.068 396.964 310.778C396.841 282.33 423.552 263.104 423.822 262.913C424.059 262.745 424.116 262.418 423.947 262.18C423.781 261.944 423.453 261.884 423.214 262.055C422.94 262.248 395.786 281.794 395.911 310.783C395.913 311.072 396.147 311.306 396.437 311.306Z" fill="white"/>
<path d="M72.6498 298.357L80.6718 292.943C80.6718 292.943 84.203 271.925 80.9226 253.464C76.3097 227.507 58.4089 218.87 52.0213 221.582C45.6337 224.294 44.2684 232.036 56.1864 246.855C63.2179 255.598 72.4036 274.191 72.6498 298.357Z" fill="#1B77BB"/>
<g opacity="0.15">
<path d="M72.6498 298.357L80.6718 292.943C80.6718 292.943 84.203 271.925 80.9226 253.464C76.3097 227.507 58.4089 218.87 52.0213 221.582C45.6337 224.294 44.2684 232.036 56.1864 246.855C63.2179 255.598 72.4036 274.191 72.6498 298.357Z" fill="black"/>
</g>
<path d="M75.4049 287.96C75.3776 287.96 75.3511 287.959 75.3247 287.956C75.0064 287.917 74.7775 287.629 74.8158 287.31C77.7132 262.87 67.3957 236.355 56.1745 225.805C55.941 225.586 55.9292 225.217 56.1499 224.983C56.3706 224.751 56.7381 224.738 56.9716 224.958C68.3971 235.701 78.9116 262.647 75.9704 287.447C75.9348 287.739 75.6895 287.955 75.4049 287.96Z" fill="white"/>
<path d="M51.6374 312.532C50.3642 313.296 46.6424 310.535 45.6127 309.872C43.8498 308.739 42.4079 307.111 41.4348 305.259C40.3031 303.103 39.9829 300.777 40.2775 298.362C40.4307 297.11 40.7563 295.886 41.081 294.667C41.4002 293.471 41.7194 292.274 42.0386 291.077C42.3532 289.896 42.6715 288.675 42.4928 287.466C42.1334 285.03 39.9328 283.362 37.9337 281.924C35.723 280.334 33.4129 278.225 33.3682 275.285C33.3335 273.016 34.4681 270.887 35.8388 269.08C37.2105 267.273 38.8475 265.668 40.0814 263.764C40.9697 262.393 41.6528 260.791 41.4722 259.168C41.3601 258.159 40.9232 257.215 40.4225 256.333C39.3473 254.439 37.9446 252.713 37.1886 250.67C36.4325 248.628 36.4854 246.068 38.0623 244.566C39.3564 243.333 41.3108 243.126 43.0956 243.209C44.7472 243.287 46.3733 244 47.8316 244.774C52.5485 247.279 55.3191 252.754 60.3096 254.656C62.2348 255.389 64.3306 255.518 66.3315 256.006C68.3325 256.494 70.3826 257.471 71.3402 259.295C73.2281 262.891 69.9412 267.431 71.2937 271.261C72.4903 274.65 75.83 275.891 77.7507 278.929C78.5906 280.258 78.8086 281.808 78.7074 283.378C78.5359 286.033 78.1857 287.986 76.9709 290.959C75.9668 293.416 72.9846 298.136 72.9846 298.136C72.9846 298.136 51.8316 312.414 51.6374 312.532Z" fill="#1B77BB"/>
<path d="M63.9657 304.97C63.9575 304.97 63.9502 304.97 63.9502 304.97C63.621 304.963 63.3675 304.696 63.3738 304.376C63.8882 281.287 52.5265 256.027 44.4781 248.78C44.2401 248.566 44.22 248.198 44.4352 247.959C44.6505 247.721 45.0171 247.703 45.256 247.916C53.4659 255.309 65.0574 280.988 64.5366 304.402C64.5284 304.716 64.2758 304.964 63.9657 304.97Z" fill="white"/>
<path d="M59.7123 276.842C59.6557 276.843 59.5974 276.836 59.5408 276.819C52.0843 274.671 42.8384 274.445 42.7463 274.443C42.4253 274.436 42.1709 274.17 42.1772 273.849C42.1845 273.529 42.4226 273.27 42.7719 273.28C42.8658 273.282 52.2585 273.51 59.8627 275.702C60.171 275.79 60.3498 276.112 60.2604 276.42C60.1865 276.672 59.9603 276.837 59.7123 276.842Z" fill="white"/>
<path d="M274.657 282.487L271.197 280.487C270.107 279.857 269.223 278.326 269.223 277.066L269.222 133.411C269.222 132.151 270.106 130.62 271.197 129.991L367.272 74.5227C368.362 73.8935 370.13 73.8935 371.22 74.5227L374.682 76.52C375.772 77.1493 376.656 78.6806 376.656 79.94V223.595C376.656 224.854 375.772 226.385 374.682 227.015L278.605 282.487C277.515 283.117 275.747 283.116 274.657 282.487Z" fill="#455A64"/>
<path d="M376.64 79.6189C376.503 78.5974 375.673 78.2235 374.679 78.7981L278.609 134.275C278.062 134.594 277.578 135.123 277.213 135.743L269.799 131.466C270.155 130.846 270.647 130.308 271.194 129.989L367.273 74.5208C368.359 73.8915 370.128 73.8915 371.222 74.5208L374.679 76.5181C375.682 77.0926 376.512 78.4333 376.64 79.6189Z" fill="#455A64"/>
<path d="M278.271 282.646C277.177 283.111 275.645 283.057 274.66 282.491L271.194 280.485C270.109 279.856 269.224 278.323 269.224 277.065V133.409C269.224 132.78 269.443 132.087 269.799 131.467L277.213 135.744C276.849 136.364 276.63 137.066 276.63 137.696V281.351C276.63 282.482 277.341 283.002 278.271 282.646Z" fill="#263238"/>
<path d="M276.631 137.693V281.348C276.631 282.607 277.514 283.117 278.605 282.488L374.682 227.015C375.772 226.386 376.656 224.855 376.656 223.595V79.9389C376.656 78.6794 375.772 78.1696 374.682 78.7989L278.605 134.273C277.515 134.902 276.631 136.434 276.631 137.693Z" fill="#37474F"/>
<path d="M254.195 192.451C252.954 191.712 247.2 188.438 246.899 188.265C245.987 187.709 245.658 186.359 246.506 185.447L269.224 161.078L276.63 165.328L253.921 189.706C253.1 190.581 253.365 191.849 254.195 192.451Z" fill="#455A64"/>
<path d="M276.631 165.332L253.918 189.703C252.78 190.925 253.741 192.906 255.405 192.77L276.631 191.021V165.332Z" fill="#37474F"/>
<path d="M326.643 121.48C337.84 115.015 346.918 120.256 346.918 133.186C346.918 146.115 337.84 161.837 326.643 168.302C315.445 174.767 306.368 169.526 306.368 156.597C306.369 143.666 315.446 127.944 326.643 121.48Z" fill="#FFDB05"/>
<path d="M326.501 131.654C330.133 129.557 333.079 131.257 333.079 135.451C333.079 139.646 330.134 144.747 326.501 146.844C322.868 148.94 319.923 147.241 319.923 143.046C319.923 138.852 322.868 133.751 326.501 131.654Z" fill="white"/>
<path d="M339.464 154.022C339.464 147.13 334.625 144.337 328.657 147.783L324.926 149.937C318.959 153.383 314.12 161.763 314.12 168.654V170.534C315.198 170.891 316.367 171.068 317.604 171.071C320.326 171.076 323.391 170.18 326.644 168.302C331.508 165.493 335.971 160.935 339.464 155.621V154.022Z" fill="white"/>
<path d="M313.8 232.313L339.488 217.482C340.578 216.853 341.462 217.363 341.462 218.622V226.895C341.462 228.155 340.578 229.686 339.488 230.315L313.8 245.146C312.709 245.775 311.826 245.266 311.826 244.006V235.733C311.826 234.474 312.709 232.943 313.8 232.313Z" fill="#FFDB05"/>
<path d="M301.228 213.832L352.058 184.486C353.367 183.73 354.428 184.342 354.428 185.854V188.932C354.428 190.444 353.367 192.281 352.058 193.036L301.229 222.383C299.92 223.138 298.86 222.526 298.86 221.015V217.936C298.859 216.425 299.92 214.587 301.228 213.832Z" fill="#FAFAFA"/>
<path d="M307.173 192.594C307.864 192.195 308.402 192.135 308.785 192.417C309.168 192.697 309.36 193.321 309.36 194.29C309.36 195.259 309.168 196.108 308.785 196.84C308.402 197.572 307.864 198.138 307.173 198.537L305.8 199.329V202.273C305.8 202.371 305.777 202.467 305.732 202.563C305.685 202.661 305.631 202.728 305.567 202.763L304.873 203.164C304.81 203.202 304.756 203.198 304.709 203.154C304.664 203.109 304.641 203.04 304.641 202.942V194.411C304.641 194.314 304.664 194.217 304.709 194.12C304.756 194.024 304.81 193.956 304.873 193.92L307.173 192.594ZM305.8 197.678L307.129 196.91C307.454 196.722 307.715 196.473 307.909 196.162C308.104 195.852 308.2 195.452 308.2 194.958C308.2 194.465 308.104 194.179 307.909 194.103C307.714 194.026 307.454 194.082 307.129 194.271L305.8 195.038V197.678Z" fill="#FAFAFA"/>
<path d="M313.184 189.122C313.276 189.069 313.345 189.066 313.39 189.114C313.437 189.164 313.477 189.252 313.511 189.383L315.613 196.515C315.618 196.538 315.621 196.567 315.621 196.603C315.621 196.7 315.598 196.796 315.553 196.893C315.507 196.99 315.453 197.057 315.39 197.093L314.772 197.449C314.658 197.515 314.577 197.524 314.531 197.476C314.485 197.427 314.455 197.374 314.437 197.312L314.068 196.059L311.358 197.625L310.989 199.303C310.972 199.384 310.94 199.475 310.895 199.576C310.849 199.677 310.769 199.76 310.654 199.827L310.037 200.183C309.974 200.219 309.919 200.215 309.874 200.171C309.827 200.127 309.805 200.057 309.805 199.961C309.805 199.925 309.808 199.893 309.815 199.863L311.916 190.305C311.95 190.134 311.99 190 312.036 189.899C312.082 189.798 312.15 189.721 312.242 189.668L313.184 189.122ZM313.656 194.648L312.713 191.429L311.77 195.737L313.656 194.648Z" fill="#FAFAFA"/>
<path d="M318.812 185.741C319.195 185.521 319.532 185.405 319.823 185.396C320.115 185.385 320.357 185.443 320.553 185.568C320.747 185.694 320.894 185.871 320.994 186.099C321.093 186.327 321.15 186.566 321.162 186.814C321.167 186.916 321.145 187.015 321.098 187.109C321.049 187.202 320.993 187.267 320.93 187.304L320.329 187.65C320.232 187.708 320.16 187.72 320.111 187.691C320.063 187.663 320.017 187.611 319.978 187.538C319.892 187.367 319.764 187.251 319.589 187.188C319.413 187.127 319.154 187.193 318.812 187.392C318.663 187.478 318.522 187.585 318.387 187.71C318.252 187.836 318.135 187.974 318.035 188.125C317.935 188.274 317.857 188.433 317.799 188.597C317.742 188.763 317.713 188.929 317.713 189.096C317.713 189.299 317.74 189.449 317.795 189.545C317.848 189.64 317.94 189.698 318.069 189.716C318.198 189.735 318.368 189.721 318.58 189.679C318.791 189.636 319.055 189.577 319.369 189.501C319.712 189.417 320.007 189.381 320.257 189.392C320.505 189.403 320.708 189.47 320.865 189.595C321.023 189.721 321.14 189.901 321.217 190.138C321.295 190.376 321.333 190.674 321.333 191.035C321.333 191.431 321.276 191.832 321.162 192.237C321.048 192.641 320.884 193.026 320.673 193.39C320.46 193.754 320.201 194.096 319.891 194.416C319.583 194.735 319.237 195.005 318.853 195.226C318.532 195.411 318.227 195.529 317.936 195.577C317.644 195.628 317.385 195.606 317.16 195.512C316.934 195.417 316.752 195.252 316.614 195.014C316.478 194.776 316.4 194.468 316.383 194.091C316.377 193.989 316.399 193.89 316.447 193.796C316.495 193.703 316.551 193.638 316.614 193.601L317.215 193.255C317.311 193.197 317.386 193.182 317.437 193.204C317.489 193.227 317.531 193.282 317.567 193.367C317.607 193.46 317.655 193.545 317.713 193.627C317.77 193.708 317.846 193.764 317.943 193.796C318.04 193.828 318.162 193.83 318.308 193.804C318.454 193.777 318.635 193.701 318.853 193.575C319.024 193.477 319.19 193.361 319.351 193.228C319.51 193.097 319.651 192.949 319.771 192.788C319.89 192.626 319.987 192.457 320.062 192.276C320.136 192.096 320.173 191.906 320.173 191.702C320.173 191.51 320.133 191.375 320.054 191.297C319.973 191.22 319.851 191.185 319.689 191.192C319.526 191.197 319.325 191.23 319.084 191.289C318.844 191.348 318.567 191.408 318.252 191.465C317.966 191.524 317.716 191.544 317.502 191.523C317.288 191.502 317.11 191.425 316.97 191.295C316.831 191.164 316.726 190.975 316.657 190.729C316.589 190.482 316.555 190.162 316.555 189.764C316.555 189.368 316.613 188.97 316.727 188.571C316.841 188.17 316.998 187.792 317.199 187.44C317.399 187.086 317.637 186.761 317.915 186.466C318.192 186.167 318.492 185.927 318.812 185.741Z" fill="#FAFAFA"/>
<path d="M324.798 182.285C325.182 182.064 325.518 181.949 325.809 181.939C326.101 181.929 326.345 181.986 326.54 182.111C326.733 182.237 326.88 182.414 326.98 182.642C327.081 182.871 327.136 183.11 327.148 183.357C327.154 183.46 327.133 183.558 327.084 183.651C327.035 183.745 326.979 183.811 326.917 183.847L326.316 184.194C326.218 184.251 326.146 184.263 326.098 184.235C326.049 184.206 326.005 184.154 325.965 184.081C325.879 183.911 325.75 183.794 325.575 183.731C325.401 183.67 325.142 183.736 324.798 183.935C324.649 184.022 324.509 184.127 324.374 184.253C324.239 184.38 324.122 184.517 324.022 184.667C323.921 184.818 323.843 184.976 323.786 185.141C323.728 185.306 323.7 185.472 323.7 185.64C323.7 185.843 323.726 185.992 323.781 186.087C323.836 186.185 323.926 186.241 324.056 186.26C324.185 186.278 324.355 186.265 324.566 186.222C324.778 186.179 325.041 186.121 325.355 186.044C325.699 185.961 325.994 185.925 326.243 185.935C326.492 185.946 326.695 186.013 326.852 186.137C327.01 186.264 327.127 186.444 327.204 186.681C327.281 186.92 327.32 187.217 327.32 187.578C327.32 187.974 327.262 188.375 327.148 188.78C327.034 189.184 326.87 189.569 326.659 189.933C326.449 190.298 326.188 190.639 325.879 190.959C325.57 191.278 325.224 191.548 324.842 191.769C324.52 191.954 324.214 192.072 323.923 192.121C323.632 192.171 323.373 192.148 323.147 192.055C322.921 191.961 322.74 191.796 322.602 191.557C322.465 191.319 322.388 191.011 322.37 190.634C322.365 190.531 322.387 190.433 322.435 190.34C322.482 190.245 322.538 190.18 322.602 190.144L323.202 189.797C323.299 189.741 323.373 189.724 323.424 189.748C323.477 189.771 323.519 189.825 323.554 189.91C323.594 190.003 323.643 190.088 323.7 190.17C323.757 190.251 323.834 190.307 323.932 190.34C324.028 190.372 324.15 190.374 324.295 190.348C324.441 190.321 324.622 190.245 324.841 190.119C325.012 190.021 325.177 189.906 325.338 189.772C325.497 189.641 325.638 189.494 325.758 189.332C325.878 189.17 325.975 189.001 326.05 188.821C326.124 188.642 326.16 188.451 326.16 188.248C326.16 188.054 326.12 187.92 326.041 187.842C325.961 187.765 325.839 187.73 325.676 187.736C325.514 187.743 325.312 187.775 325.072 187.834C324.832 187.893 324.554 187.952 324.24 188.011C323.954 188.069 323.704 188.089 323.489 188.068C323.276 188.046 323.097 187.971 322.958 187.84C322.818 187.71 322.713 187.521 322.645 187.274C322.576 187.028 322.543 186.707 322.543 186.31C322.543 185.914 322.6 185.515 322.714 185.115C322.828 184.715 322.986 184.337 323.186 183.984C323.386 183.63 323.624 183.307 323.902 183.01C324.18 182.711 324.478 182.47 324.798 182.285Z" fill="#FAFAFA"/>
<path d="M331.445 183.426L330.708 187.8C330.679 187.948 330.643 188.078 330.6 188.185C330.557 188.294 330.493 188.373 330.408 188.422L329.712 188.824C329.626 188.873 329.558 188.871 329.51 188.814C329.461 188.758 329.429 188.669 329.413 188.548L328.314 180.85C328.308 180.809 328.305 180.775 328.305 180.75C328.305 180.653 328.328 180.555 328.374 180.459C328.419 180.362 328.473 180.295 328.537 180.259L329.171 179.892C329.228 179.86 329.283 179.855 329.335 179.878C329.386 179.901 329.421 179.973 329.437 180.096L330.158 185.279L330.792 181.386C330.804 181.318 330.831 181.222 330.875 181.101C330.916 180.979 330.989 180.889 331.092 180.829L331.796 180.423C331.899 180.364 331.972 180.37 332.015 180.442C332.057 180.514 332.084 180.577 332.096 180.632L332.73 183.792L333.451 177.777C333.467 177.635 333.503 177.524 333.554 177.44C333.605 177.358 333.66 177.3 333.717 177.268L334.351 176.901C334.414 176.865 334.469 176.869 334.514 176.914C334.56 176.958 334.583 177.028 334.583 177.124C334.583 177.15 334.58 177.187 334.575 177.234L333.476 186.201C333.458 186.343 333.426 186.47 333.379 186.581C333.33 186.692 333.263 186.773 333.176 186.824L332.481 187.224C332.395 187.274 332.331 187.27 332.288 187.21C332.245 187.151 332.21 187.064 332.181 186.948L331.445 183.426Z" fill="#FAFAFA"/>
<path d="M335.716 179.561C335.735 179.059 335.795 178.558 335.901 178.061C336.006 177.564 336.162 177.095 336.368 176.656C336.575 176.216 336.832 175.811 337.14 175.444C337.45 175.076 337.815 174.771 338.239 174.526C338.656 174.284 339.019 174.168 339.327 174.174C339.636 174.181 339.893 174.288 340.099 174.495C340.305 174.702 340.461 174.99 340.571 175.358C340.679 175.727 340.743 176.157 340.761 176.648C340.766 176.813 340.771 176.996 340.773 177.196C340.776 177.396 340.778 177.604 340.778 177.82C340.778 178.036 340.776 178.246 340.773 178.45C340.771 178.655 340.766 178.842 340.761 179.011C340.742 179.516 340.681 180.015 340.576 180.512C340.471 181.009 340.315 181.477 340.108 181.917C339.902 182.357 339.643 182.76 339.332 183.124C339.02 183.489 338.656 183.792 338.239 184.033C337.815 184.277 337.45 184.396 337.14 184.39C336.832 184.383 336.575 184.279 336.368 184.076C336.162 183.874 336.006 183.586 335.901 183.21C335.795 182.836 335.734 182.407 335.716 181.924C335.711 181.76 335.705 181.579 335.704 181.376C335.7 181.176 335.699 180.968 335.699 180.752C335.699 180.537 335.7 180.326 335.704 180.122C335.706 179.919 335.711 179.732 335.716 179.561ZM339.602 177.383C339.58 176.762 339.446 176.349 339.203 176.141C338.959 175.934 338.638 175.945 338.238 176.177C337.838 176.408 337.516 176.768 337.272 177.257C337.029 177.745 336.896 178.311 336.873 178.958C336.861 179.3 336.854 179.675 336.854 180.085C336.854 180.494 336.861 180.862 336.873 181.19C336.895 181.811 337.029 182.222 337.272 182.425C337.516 182.628 337.837 182.614 338.238 182.383C338.638 182.152 338.959 181.795 339.203 181.311C339.446 180.827 339.579 180.263 339.602 179.615C339.614 179.274 339.62 178.899 339.62 178.49C339.62 178.08 339.614 177.713 339.602 177.383Z" fill="#FAFAFA"/>
<path d="M344.765 170.889C345.479 170.477 346.022 170.419 346.394 170.715C346.765 171.011 346.951 171.613 346.951 172.52C346.951 173.163 346.856 173.765 346.665 174.329C346.472 174.893 346.191 175.393 345.819 175.828L347.003 178.406C347.02 178.449 347.029 178.493 347.029 178.537C347.029 178.616 347.009 178.694 346.972 178.774C346.936 178.853 346.89 178.907 346.839 178.937L346.109 179.357C345.995 179.423 345.911 179.43 345.857 179.378C345.802 179.324 345.764 179.271 345.741 179.214L344.618 176.784L343.477 177.444V180.521C343.477 180.618 343.455 180.714 343.409 180.81C343.362 180.908 343.31 180.974 343.246 181.012L342.551 181.412C342.488 181.448 342.434 181.444 342.387 181.399C342.341 181.355 342.319 181.286 342.319 181.189V172.659C342.319 172.561 342.341 172.464 342.387 172.369C342.434 172.271 342.487 172.204 342.551 172.167L344.765 170.889ZM343.478 175.792L344.721 175.074C345.048 174.887 345.308 174.648 345.502 174.359C345.696 174.072 345.793 173.681 345.793 173.188C345.793 172.695 345.695 172.421 345.502 172.366C345.307 172.311 345.048 172.378 344.721 172.566L343.478 173.284V175.792Z" fill="#FAFAFA"/>
<path d="M350.846 167.378C351.269 167.133 351.636 167.008 351.948 166.998C352.26 166.991 352.52 167.085 352.73 167.282C352.938 167.478 353.097 167.768 353.209 168.153C353.32 168.538 353.387 169.001 353.411 169.542C353.434 170.179 353.434 170.832 353.411 171.496C353.388 172.065 353.32 172.605 353.209 173.118C353.097 173.632 352.939 174.106 352.733 174.542C352.526 174.978 352.271 175.37 351.964 175.718C351.659 176.067 351.3 176.359 350.888 176.597L348.727 177.845C348.664 177.881 348.61 177.878 348.564 177.833C348.518 177.789 348.495 177.72 348.495 177.622V169.091C348.495 168.996 348.518 168.897 348.564 168.801C348.61 168.705 348.663 168.637 348.727 168.601L350.846 167.378ZM352.253 170.21C352.241 169.936 352.205 169.694 352.146 169.487C352.086 169.28 351.997 169.12 351.88 169.008C351.762 168.894 351.615 168.84 351.439 168.84C351.261 168.842 351.049 168.913 350.804 169.055L349.655 169.718V175.661L350.847 174.973C351.082 174.838 351.284 174.67 351.456 174.469C351.628 174.269 351.77 174.048 351.885 173.805C351.999 173.562 352.087 173.301 352.147 173.02C352.206 172.739 352.243 172.454 352.253 172.167C352.274 171.5 352.274 170.85 352.253 170.21Z" fill="#FAFAFA"/>
<path d="M225.608 35.0166C227.202 35.3696 228.704 35.9341 230.115 36.7084C231.526 37.4836 232.721 38.433 233.7 39.5566C234.678 40.6792 235.383 41.956 235.813 43.3861C236.243 44.8142 236.274 46.361 235.907 48.0218C235.607 49.3779 235.134 50.5106 234.489 51.4162C233.842 52.3227 233.101 53.1016 232.263 53.7509C231.426 54.4012 230.543 54.9712 229.618 55.4591C228.69 55.9479 227.813 56.4122 226.988 56.8499C226.161 57.2895 225.413 57.7747 224.746 58.3018C224.077 58.8299 223.61 59.4564 223.343 60.1796C223.192 60.538 222.968 60.8253 222.672 61.0433C222.374 61.2631 222.039 61.3297 221.666 61.2485L217.8 60.3921C217.427 60.31 217.126 60.1021 216.899 59.7656C216.671 59.4309 216.615 59.0816 216.731 58.7159C217.092 57.4081 217.628 56.3082 218.342 55.4172C219.055 54.5261 219.847 53.7591 220.718 53.1153C221.59 52.4723 222.496 51.9178 223.435 51.45C224.374 50.9812 225.248 50.5261 226.059 50.0829C226.868 49.6406 227.559 49.17 228.13 48.6747C228.703 48.1795 229.068 47.5749 229.226 46.8626C229.511 45.5749 229.204 44.3947 228.302 43.3231C227.401 42.2524 226.051 41.5183 224.254 41.1197C221.372 40.4813 218.934 41.4535 216.939 44.0354C216.687 44.371 216.447 44.6109 216.22 44.7559C215.992 44.9018 215.657 44.9255 215.215 44.827L211.096 43.915C210.791 43.8475 210.55 43.687 210.375 43.4353C210.2 43.1836 210.15 42.8872 210.225 42.5479C210.52 41.3687 211.155 40.2378 212.124 39.1535C213.092 38.07 214.273 37.158 215.664 36.4156C217.056 35.6751 218.612 35.1562 220.331 34.8616C222.053 34.5679 223.81 34.6181 225.608 35.0166ZM221.246 64.3575C221.618 64.4396 221.91 64.6466 222.12 64.9786C222.332 65.3096 222.397 65.6617 222.314 66.0347L221.322 70.5098C221.239 70.8838 221.033 71.1756 220.701 71.3863C220.37 71.5988 220.019 71.6626 219.646 71.5796L215.272 70.6111C214.898 70.5272 214.606 70.322 214.395 69.9891C214.183 69.658 214.118 69.3069 214.201 68.933L215.193 64.4569C215.276 64.0848 215.482 63.7921 215.814 63.5805C216.146 63.3707 216.497 63.305 216.871 63.388L221.246 64.3575Z" fill="#1B77BB"/>
<path d="M230.477 77.7992C231.589 77.6177 232.697 77.5931 233.8 77.7299C234.903 77.8649 235.911 78.1667 236.827 78.6364C237.742 79.1079 238.521 79.7454 239.162 80.5516C239.805 81.3587 240.22 82.3419 240.409 83.4992C240.564 84.4458 240.55 85.294 240.368 86.0391C240.187 86.7851 239.911 87.4746 239.54 88.1066C239.17 88.7377 238.751 89.3287 238.281 89.8786C237.812 90.4295 237.369 90.9502 236.952 91.4436C236.534 91.937 236.179 92.4395 235.886 92.9484C235.592 93.4573 235.453 93.9781 235.467 94.5098C235.462 94.7788 235.392 95.0205 235.258 95.2366C235.124 95.4528 234.926 95.5823 234.667 95.6251L231.969 96.0656C231.708 96.1085 231.462 96.0511 231.229 95.8942C230.998 95.7382 230.872 95.5285 230.854 95.264C230.75 94.3328 230.812 93.492 231.042 92.7368C231.27 91.9835 231.582 91.2877 231.976 90.6529C232.37 90.0182 232.809 89.4299 233.291 88.8891C233.774 88.3492 234.218 87.833 234.624 87.3405C235.029 86.8508 235.352 86.372 235.591 85.9087C235.831 85.4436 235.911 84.9639 235.83 84.4659C235.683 83.5685 235.184 82.89 234.331 82.4331C233.478 81.9771 232.426 81.8512 231.172 82.0564C229.161 82.3847 227.847 83.6333 227.228 85.7993C227.153 86.0783 227.061 86.2936 226.951 86.445C226.843 86.5973 226.634 86.6976 226.326 86.7477L223.453 87.2183C223.239 87.253 223.044 87.2119 222.866 87.0952C222.689 86.9776 222.582 86.8015 222.542 86.5644C222.43 85.7336 222.547 84.8453 222.892 83.9023C223.235 82.9593 223.758 82.0719 224.46 81.2411C225.163 80.4093 226.028 79.6797 227.054 79.0505C228.083 78.4212 229.223 78.0044 230.477 77.7992ZM235.19 97.7255C235.45 97.6835 235.691 97.7419 235.911 97.8988C236.131 98.0584 236.263 98.2672 236.305 98.5262L236.816 101.651C236.859 101.911 236.801 102.151 236.643 102.371C236.484 102.592 236.275 102.722 236.015 102.765L232.962 103.264C232.702 103.307 232.461 103.249 232.242 103.092C232.021 102.933 231.89 102.724 231.847 102.464L231.336 99.3397C231.294 99.0807 231.351 98.8399 231.509 98.6192C231.668 98.3995 231.877 98.2672 232.137 98.2243L235.19 97.7255Z" fill="#1B77BB"/>
<g opacity="0.2">
<path d="M230.477 77.7992C231.589 77.6177 232.697 77.5931 233.8 77.7299C234.903 77.8649 235.911 78.1667 236.827 78.6364C237.742 79.1079 238.521 79.7454 239.162 80.5516C239.805 81.3587 240.22 82.3419 240.409 83.4992C240.564 84.4458 240.55 85.294 240.368 86.0391C240.187 86.7851 239.911 87.4746 239.54 88.1066C239.17 88.7377 238.751 89.3287 238.281 89.8786C237.812 90.4295 237.369 90.9502 236.952 91.4436C236.534 91.937 236.179 92.4395 235.886 92.9484C235.592 93.4573 235.453 93.9781 235.467 94.5098C235.462 94.7788 235.392 95.0205 235.258 95.2366C235.124 95.4528 234.926 95.5823 234.667 95.6251L231.969 96.0656C231.708 96.1085 231.462 96.0511 231.229 95.8942C230.998 95.7382 230.872 95.5285 230.854 95.264C230.75 94.3328 230.812 93.492 231.042 92.7368C231.27 91.9835 231.582 91.2877 231.976 90.6529C232.37 90.0182 232.809 89.4299 233.291 88.8891C233.774 88.3492 234.218 87.833 234.624 87.3405C235.029 86.8508 235.352 86.372 235.591 85.9087C235.831 85.4436 235.911 84.9639 235.83 84.4659C235.683 83.5685 235.184 82.89 234.331 82.4331C233.478 81.9771 232.426 81.8512 231.172 82.0564C229.161 82.3847 227.847 83.6333 227.228 85.7993C227.153 86.0783 227.061 86.2936 226.951 86.445C226.843 86.5973 226.634 86.6976 226.326 86.7477L223.453 87.2183C223.239 87.253 223.044 87.2119 222.866 87.0952C222.689 86.9776 222.582 86.8015 222.542 86.5644C222.43 85.7336 222.547 84.8453 222.892 83.9023C223.235 82.9593 223.758 82.0719 224.46 81.2411C225.163 80.4093 226.028 79.6797 227.054 79.0505C228.083 78.4212 229.223 78.0044 230.477 77.7992ZM235.19 97.7255C235.45 97.6835 235.691 97.7419 235.911 97.8988C236.131 98.0584 236.263 98.2672 236.305 98.5262L236.816 101.651C236.859 101.911 236.801 102.151 236.643 102.371C236.484 102.592 236.275 102.722 236.015 102.765L232.962 103.264C232.702 103.307 232.461 103.249 232.242 103.092C232.021 102.933 231.89 102.724 231.847 102.464L231.336 99.3397C231.294 99.0807 231.351 98.8399 231.509 98.6192C231.668 98.3995 231.877 98.2672 232.137 98.2243L235.19 97.7255Z" fill="black"/>
</g>
<path d="M256.264 82.7086C256.518 82.8901 256.672 83.1391 256.727 83.4555C256.78 83.7729 256.716 84.0584 256.535 84.3128L254.363 87.3689C254.182 87.6243 253.933 87.7784 253.616 87.8313C253.299 87.886 253.013 87.8213 252.759 87.6407L249.773 85.5176C249.518 85.3361 249.364 85.088 249.311 84.7715C249.256 84.4533 249.321 84.1687 249.502 83.9143L251.674 80.8572C251.855 80.6028 252.103 80.4487 252.421 80.3949C252.738 80.3411 253.022 80.4049 253.278 80.5864L256.264 82.7086ZM268.899 61.9953C269.986 62.7677 270.939 63.6715 271.755 64.7048C272.571 65.739 273.17 66.8343 273.548 67.9917C273.927 69.1508 274.051 70.3355 273.92 71.5494C273.789 72.7642 273.321 73.9379 272.514 75.0724C271.855 75.999 271.138 76.7003 270.365 77.1773C269.59 77.6552 268.784 78.0054 267.945 78.2279C267.106 78.4514 266.26 78.5991 265.408 78.673C264.553 78.7451 263.746 78.8153 262.983 78.8828C262.221 78.9503 261.503 79.077 260.833 79.2622C260.161 79.4464 259.609 79.7701 259.178 80.2298C258.95 80.4514 258.69 80.5964 258.397 80.6666C258.103 80.7369 257.83 80.6812 257.575 80.4997L254.935 78.6228C254.68 78.4423 254.52 78.1896 254.455 77.8641C254.39 77.5394 254.459 77.2576 254.663 77.0186C255.353 76.1486 256.106 75.491 256.928 75.0469C257.748 74.6037 258.589 74.2772 259.452 74.0701C260.312 73.8631 261.172 73.7336 262.029 73.6807C262.885 73.6269 263.689 73.5622 264.442 73.4865C265.192 73.4108 265.862 73.2776 266.452 73.0861C267.04 72.8946 267.508 72.5562 267.853 72.0701C268.479 71.19 268.622 70.2042 268.285 69.1098C267.947 68.0163 267.165 67.0331 265.939 66.1613C263.97 64.7623 261.822 64.7176 259.498 66.0272C259.2 66.1996 258.943 66.3054 258.726 66.3418C258.507 66.3783 258.249 66.2899 257.948 66.0765L255.135 64.0764C254.927 63.9287 254.796 63.7317 254.744 63.4864C254.692 63.2392 254.75 63.0021 254.913 62.7705C255.511 61.9761 256.348 61.3249 257.425 60.817C258.501 60.309 259.68 59.998 260.965 59.8831C262.248 59.7682 263.585 59.8721 264.974 60.1986C266.361 60.5233 267.67 61.1225 268.899 61.9953Z" fill="#1B77BB"/>
<g opacity="0.6">
<path d="M256.264 82.7086C256.518 82.8901 256.672 83.1391 256.727 83.4555C256.78 83.7729 256.716 84.0584 256.535 84.3128L254.363 87.3689C254.182 87.6243 253.933 87.7784 253.616 87.8313C253.299 87.886 253.013 87.8213 252.759 87.6407L249.773 85.5176C249.518 85.3361 249.364 85.088 249.311 84.7715C249.256 84.4533 249.321 84.1687 249.502 83.9143L251.674 80.8572C251.855 80.6028 252.103 80.4487 252.421 80.3949C252.738 80.3411 253.022 80.4049 253.278 80.5864L256.264 82.7086ZM268.899 61.9953C269.986 62.7677 270.939 63.6715 271.755 64.7048C272.571 65.739 273.17 66.8343 273.548 67.9917C273.927 69.1508 274.051 70.3355 273.92 71.5494C273.789 72.7642 273.321 73.9379 272.514 75.0724C271.855 75.999 271.138 76.7003 270.365 77.1773C269.59 77.6552 268.784 78.0054 267.945 78.2279C267.106 78.4514 266.26 78.5991 265.408 78.673C264.553 78.7451 263.746 78.8153 262.983 78.8828C262.221 78.9503 261.503 79.077 260.833 79.2622C260.161 79.4464 259.609 79.7701 259.178 80.2298C258.95 80.4514 258.69 80.5964 258.397 80.6666C258.103 80.7369 257.83 80.6812 257.575 80.4997L254.935 78.6228C254.68 78.4423 254.52 78.1896 254.455 77.8641C254.39 77.5394 254.459 77.2576 254.663 77.0186C255.353 76.1486 256.106 75.491 256.928 75.0469C257.748 74.6037 258.589 74.2772 259.452 74.0701C260.312 73.8631 261.172 73.7336 262.029 73.6807C262.885 73.6269 263.689 73.5622 264.442 73.4865C265.192 73.4108 265.862 73.2776 266.452 73.0861C267.04 72.8946 267.508 72.5562 267.853 72.0701C268.479 71.19 268.622 70.2042 268.285 69.1098C267.947 68.0163 267.165 67.0331 265.939 66.1613C263.97 64.7623 261.822 64.7176 259.498 66.0272C259.2 66.1996 258.943 66.3054 258.726 66.3418C258.507 66.3783 258.249 66.2899 257.948 66.0765L255.135 64.0764C254.927 63.9287 254.796 63.7317 254.744 63.4864C254.692 63.2392 254.75 63.0021 254.913 62.7705C255.511 61.9761 256.348 61.3249 257.425 60.817C258.501 60.309 259.68 59.998 260.965 59.8831C262.248 59.7682 263.585 59.8721 264.974 60.1986C266.361 60.5233 267.67 61.1225 268.899 61.9953Z" fill="white"/>
</g>
<path d="M188.352 163.442H155.951V84.9321C155.951 70.735 167.461 59.2246 181.659 59.2246H184.653C198.851 59.2246 210.36 70.734 210.36 84.9321V141.435C210.359 153.589 200.506 163.442 188.352 163.442Z" fill="#263238"/>
<path d="M152.801 352.434C152.535 354.405 151.968 356.707 151.863 362.287C151.749 368.268 150.651 370.391 150.505 375.3C150.339 380.909 151.307 383.008 153.584 386.16C155.86 389.313 161.833 392.174 164.358 386.844C166.913 381.452 166.558 378.025 165.751 372.522C164.916 366.834 164.81 363.692 164.326 359.354C163.9 355.53 163.389 352.625 163.389 352.625L152.801 352.434Z" fill="#263238"/>
<path d="M169.78 312.697L150.077 312.34C150.37 325.493 152.46 340.092 152.801 352.432C152.865 354.755 152.743 370.483 153.619 375.263C154.935 382.444 163.46 381.475 163.912 377.177C164.364 372.879 163.363 354.518 163.39 352.624C163.316 344.709 167.025 331.35 168.97 317.142C169.065 316.445 169.689 313.378 169.78 312.697Z" fill="#FFA8A7"/>
<path d="M195.09 342.197C195.09 342.197 194.312 341.779 194.151 342.609C193.961 343.597 193.676 345.632 193.266 347.254C192.696 349.507 192.221 353.219 192.563 355.055C192.905 356.891 197.186 359.255 199.965 360.109C204.066 361.367 206.879 363.424 209.125 365.538C211.878 368.129 217.818 370.576 221.862 370.546C226.649 370.512 229.986 368.952 231.562 366.39C233.209 363.713 230.125 363.516 224.655 359.967C223.413 359.161 221.999 358.25 220.409 357.211C211.743 351.55 208.57 348.517 206.119 342.855L195.09 342.197Z" fill="#263238"/>
<path d="M206.187 338.694C206.041 334.621 208.834 300.074 208.834 300.074L190.123 308.604C194.13 332.52 194.984 338.159 195.055 342.073C195.024 342.164 194.945 342.496 194.949 343.075C194.966 347.722 200.21 350.227 204.3 353.325C205.916 354.548 210.615 358.161 215.362 360.547C218.335 362.041 224.369 362.177 225.117 360.264C220.139 356.463 212.9 350.775 208.941 346.434C207.05 344.36 206.333 342.766 206.187 338.694Z" fill="#FFA8A7"/>
<path d="M158.151 184.367C150.968 200.143 150.968 212.342 152.155 232.47C153.244 250.933 154.981 267.187 154.981 267.187C154.703 270.464 150.149 276.857 149.56 291.335C149.009 304.871 150.492 322.077 150.492 322.077C150.492 322.077 160.714 327.743 168.272 322.028C168.272 322.028 175.565 287.2 177.703 270.257C179.568 255.47 182.81 236.577 182.81 236.577L189.675 270.176C189.675 270.176 187.063 278.46 186.452 284.77C185.486 294.736 191.06 314.306 191.06 314.306C191.06 314.306 201.622 317.458 208.073 311.738C208.073 311.738 210.485 279.92 211.385 267.914C212.591 251.837 210.056 208.314 208.072 185.273L158.151 184.367Z" fill="#455A64"/>
<path d="M182.809 236.577L185.648 211.285C185.648 211.285 198.362 209.586 204.121 204.172C204.121 204.172 199.794 212.101 189.141 213.639L185.037 237.173L189.676 270.176L182.809 236.577Z" fill="#263238"/>
<path d="M234.289 178.153C235.081 170.401 235.051 165.237 234.982 164.243C234.705 160.23 233.987 159.577 228.376 152.465C220.801 142.863 214.335 134.234 207.496 125.648C202.614 119.519 197.483 118.576 192.47 118.853C188.965 119.047 195.803 135.891 199.247 145.858L218.902 166.999C219.506 167.833 219.785 168.861 219.683 169.886L218.477 187.883L224.363 195.757C224.363 195.757 233.276 188.072 234.289 178.153Z" fill="#FFA8A7"/>
<path d="M173.536 119.399C169.735 119.66 162.822 120.269 162.822 120.269C158.833 122.495 157.825 124.32 157.083 129.618C156.767 131.871 158.604 137.885 160.182 146.428L163.176 162.273L162.851 170.131C161.297 174.926 157.781 180.886 154.685 189.67C169.912 198.168 182.683 198.483 194.264 196.996C203.096 195.862 207.769 193.725 209.327 191.614C209.002 182.936 208.388 177.578 208.238 168.511C208.175 164.702 208.404 160.86 208.552 156.477C214.477 151.609 214.544 143.515 211.312 138.283C203.804 126.127 196.503 118.474 191.668 118.866L173.536 119.399Z" fill="#1B77BB"/>
<path opacity="0.6" d="M173.536 119.399C169.735 119.66 162.822 120.269 162.822 120.269C158.833 122.495 157.825 124.32 157.083 129.618C156.767 131.871 158.604 137.885 160.182 146.428L163.176 162.273L162.851 170.131C161.297 174.926 157.781 180.886 154.685 189.67C169.912 198.168 182.683 198.483 194.264 196.996C203.096 195.862 207.769 193.725 209.327 191.614C209.002 182.936 208.388 177.578 208.238 168.511C208.175 164.702 208.404 160.86 208.552 156.477C214.477 151.609 214.544 143.515 211.312 138.283C203.804 126.127 196.503 118.474 191.668 118.866L173.536 119.399Z" fill="white"/>
<path opacity="0.1" d="M196.765 156.61C196.765 156.61 189.81 162.007 181.873 159.192C173.937 156.378 172.778 149.439 172.778 149.439C172.778 149.439 171.935 158.513 181.947 161.607C191.609 164.592 196.765 156.61 196.765 156.61Z" fill="black"/>
<path d="M206.195 94.4929C205.896 107.659 201.622 110.914 199.481 111.849C197.339 112.784 193.205 112.214 189.194 111.55V119.452C189.194 119.452 193.824 124.305 193.477 127.924C193.122 131.552 186.202 131.954 181.003 128.41C177.208 125.826 174.497 122.871 173.315 121.469C172.884 120.959 172.652 120.319 172.652 119.651V101.058C172.652 101.058 170.454 103.386 166.564 100.721C162.683 98.0653 162.347 93.1085 164.722 90.3032C166.414 88.3114 170.716 88.171 172.783 91.2663C173.942 93.539 174.102 95.8208 175.401 94.876C178.87 92.3789 177.01 86.7026 181.199 83.8973C181.208 83.8973 181.208 83.8882 181.217 83.8882C182.47 83.2152 183.892 82.5786 185.482 82.0268C192.954 79.4459 199.425 77.2762 200.986 72.1699C203.931 73.9191 206.56 78.9598 206.195 94.4929Z" fill="#FFA8A7"/>
<path d="M191.468 106.257C192.422 106.257 193.196 105.483 193.196 104.529C193.196 103.575 192.422 102.801 191.468 102.801C190.513 102.801 189.74 103.575 189.74 104.529C189.74 105.483 190.513 106.257 191.468 106.257Z" fill="#B16668"/>
<path d="M190.312 92.4973C190.364 93.5415 189.592 94.4252 188.588 94.4736C187.583 94.521 186.727 93.7139 186.674 92.6696C186.622 91.6263 187.393 90.7417 188.398 90.6933C189.402 90.6468 190.26 91.4539 190.312 92.4973Z" fill="#263238"/>
<path d="M204.133 92.6767C204.181 93.6252 203.479 94.4296 202.565 94.4724C201.561 94.5199 200.878 93.8769 200.825 92.8336C200.778 91.8851 201.479 91.0807 202.393 91.0369C203.307 90.9941 204.085 91.7282 204.133 92.6767Z" fill="#263238"/>
<path d="M187.97 97.1852C184.699 97.1852 182.038 94.524 182.038 91.2536C182.038 87.2207 186.194 87.2207 187.97 87.2207C189.745 87.2207 193.901 87.2207 193.901 91.2536C193.901 94.5249 191.24 97.1852 187.97 97.1852ZM187.97 88.1564C184.375 88.1564 182.974 89.0246 182.974 91.2545C182.974 94.0096 185.214 96.2504 187.97 96.2504C190.725 96.2504 192.966 94.0096 192.966 91.2545C192.966 89.0246 191.565 88.1564 187.97 88.1564Z" fill="#455A64"/>
<path d="M203.028 97.1852C199.757 97.1852 197.096 94.524 197.096 91.2536C197.096 87.2207 201.252 87.2207 203.028 87.2207C204.803 87.2207 208.959 87.2207 208.959 91.2536C208.959 94.5249 206.298 97.1852 203.028 97.1852ZM203.028 88.1564C199.432 88.1564 198.032 89.0246 198.032 91.2545C198.032 94.0096 200.272 96.2504 203.028 96.2504C205.783 96.2504 208.024 94.0096 208.024 91.2545C208.024 89.0246 206.623 88.1564 203.028 88.1564Z" fill="#455A64"/>
<path d="M194.822 89.3418L195.114 100.419L200.945 98.6123L194.822 89.3418Z" fill="#F28F8F"/>
<path d="M189.19 111.547C184.955 110.991 176.244 108.489 174.887 105.045C174.887 105.045 175.339 107.209 177.941 109.44C180.543 111.67 189.19 114.183 189.19 114.183V111.547Z" fill="#F28F8F"/>
<path d="M189.391 83.9635L185.527 86.3182C184.894 85.2065 185.246 83.7783 186.313 83.1281C187.38 82.4778 188.758 82.8517 189.391 83.9635Z" fill="#263238"/>
<path d="M205.128 86.5878L200.824 85.0848C201.198 83.8709 202.464 83.2243 203.652 83.6393C204.841 84.0533 205.501 85.3739 205.128 86.5878Z" fill="#263238"/>
<path d="M193.433 91.7258C193.174 91.7258 192.966 91.5123 192.966 91.2533C192.966 90.4946 194.467 90.0039 195.814 90.0039C197.161 90.0039 198.031 90.4946 198.031 91.2533C198.031 91.5114 197.822 91.7212 197.563 91.7212C197.305 91.7212 197.095 91.5123 197.095 91.2533C197.053 91.1676 196.622 90.9396 195.813 90.9396C195.004 90.9396 193.942 91.1676 193.899 91.2616C193.899 91.5206 193.691 91.7258 193.433 91.7258Z" fill="#455A64"/>
<path d="M182.521 91.3306C182.504 91.3306 182.487 91.3297 182.468 91.3279L172.043 90.3785C171.856 90.2052 171.363 89.6954 170.335 89.2695L182.572 90.3986C182.829 90.4269 183.014 90.6585 182.986 90.9157C182.958 91.1537 182.756 91.3306 182.521 91.3306Z" fill="#455A64"/>
<path d="M139.721 102.196C143.13 97.6412 145.455 94.1993 148.567 90.295C150.333 88.078 151.463 86.4956 153.163 84.2211C154.333 82.6552 155.019 81.3346 156.316 80.8494C157.775 80.3032 159.182 79.2234 160.121 78.2375C160.791 77.5325 161.34 76.7236 161.92 75.942C163.868 73.3163 166.196 70.9725 168.807 69.0053C171.551 66.9378 174.6 65.361 177.415 63.391C179.095 62.2155 180.896 60.2629 178.851 58.4407C178.241 57.8962 177.466 57.5716 176.667 57.3974C171.705 56.313 167.375 58.0239 162.521 59.2651C160.412 59.8041 158.336 60.4799 156.34 61.3527C155.372 61.7759 154.406 62.2364 153.604 62.9232C152.352 63.9939 151.604 65.5178 150.791 66.9487C148.609 70.7937 144.088 74.1864 140.906 77.1796C137.173 80.6908 133.837 83.9101 129.579 87.7843C125.747 91.2709 121.997 94.4857 118.482 98.2933C115.575 101.443 116.633 103.908 117.047 104.758C119.416 109.632 122.069 111.38 125.239 114.398C130.728 119.628 149.635 134.67 155.908 139.635C157.251 140.698 158.305 142.076 158.983 143.648L160.18 146.43C167.33 147.746 172.101 137.01 166.179 124.085C165.219 121.988 163.695 120.203 161.832 118.844C154.369 113.4 139.721 102.196 139.721 102.196Z" fill="#FFA8A7"/>
<path d="M139.721 102.195C139.721 102.195 136.488 106.517 130.982 108.21C130.982 108.21 135.543 109.374 141.786 103.771L139.721 102.195Z" fill="#F28F8F"/>
<path d="M232.433 168.637L232.457 168.64L231.288 167.632L231.287 167.646C231.023 167.435 230.614 167.368 230.085 167.512L217.422 170.957C216.248 171.276 214.974 172.466 214.576 173.615L205.464 199.907C205.253 200.517 205.337 200.986 205.631 201.251L205.621 201.255L206.827 202.293L206.826 202.278C207.089 202.497 207.503 202.567 208.04 202.421L220.703 198.977C221.877 198.658 223.151 197.467 223.549 196.318C225.339 191.15 230.873 175.192 232.662 170.025C232.887 169.376 232.775 168.889 232.433 168.637Z" fill="#455A64"/>
<path d="M206.635 200.917L215.748 174.625C216.146 173.476 217.42 172.286 218.594 171.966L231.257 168.523C232.43 168.203 233.059 168.877 232.661 170.026C230.872 175.193 225.338 191.15 223.548 196.319C223.151 197.468 221.876 198.659 220.703 198.978L208.04 202.422C206.866 202.739 206.238 202.066 206.635 200.917Z" fill="#1B77BB"/>
<path d="M217.216 172.696C216.557 173.217 215.99 173.934 215.747 174.628L206.632 200.911C206.435 201.502 206.493 201.964 206.759 202.23L205.625 201.258L205.637 201.246C205.336 200.98 205.255 200.517 205.463 199.905L214.579 173.609C214.799 172.961 215.319 172.302 215.932 171.781L217.216 172.696Z" fill="#37474F"/>
<path d="M228.954 180.618C228.061 183.296 224.879 185.083 219.649 186.322C214.418 187.561 211.521 193.116 212.365 194.806C213.211 196.495 221.662 198.065 225.043 197.583C228.424 197.099 231.825 192.213 232.848 190.701C233.871 189.189 235.064 178.627 233.978 177.178C232.891 175.729 230.608 175.952 230.608 175.952L228.954 180.618Z" fill="#F28F8F"/>
</svg>
