<svg width="500" height="500" viewBox="0 0 500 500" fill="none" xmlns="http://www.w3.org/2000/svg">
<path d="M500 382.396H0V382.646H500V382.396Z" fill="#EBEBEB"/>
<path d="M449.901 398.492H416.779V398.742H449.901V398.492Z" fill="#EBEBEB"/>
<path d="M331.22 401.207H322.527V401.457H331.22V401.207Z" fill="#EBEBEB"/>
<path d="M415.778 389.207H396.586V389.457H415.778V389.207Z" fill="#EBEBEB"/>
<path d="M95.652 390.887H52.459V391.137H95.652V390.887Z" fill="#EBEBEB"/>
<path d="M110.89 390.887H104.557V391.137H110.89V390.887Z" fill="#EBEBEB"/>
<path d="M225.147 395.109H131.471V395.359H225.147V395.109Z" fill="#EBEBEB"/>
<path d="M237.014 337.799H43.915C40.768 337.799 38.207 335.238 38.207 332.091V60.6592C38.207 57.5122 40.768 54.9512 43.915 54.9512H237.014C240.16 54.9512 242.721 57.5122 242.721 60.6592V332.091C242.721 335.238 240.16 337.799 237.014 337.799ZM43.915 55.2022C40.905 55.2022 38.457 57.6502 38.457 60.6602V332.092C38.457 335.102 40.905 337.55 43.915 337.55H237.014C240.023 337.55 242.471 335.102 242.471 332.092V60.6592C242.471 57.6502 240.023 55.2012 237.014 55.2012L43.915 55.2022Z" fill="#EBEBEB"/>
<path d="M453.311 337.799H260.213C257.066 337.799 254.506 335.238 254.506 332.091V60.6592C254.506 57.5122 257.067 54.9512 260.213 54.9512H453.311C456.459 54.9512 459.019 57.5122 459.019 60.6592V332.091C459.02 335.238 456.459 337.799 453.311 337.799ZM260.213 55.2022C257.204 55.2022 254.756 57.6502 254.756 60.6602V332.092C254.756 335.102 257.204 337.55 260.213 337.55H453.311C456.321 337.55 458.769 335.102 458.769 332.092V60.6592C458.769 57.6502 456.321 55.2012 453.311 55.2012L260.213 55.2022Z" fill="#EBEBEB"/>
<path d="M398.306 96.7773H271.246V382.398H398.306V96.7773Z" fill="#F0F0F0"/>
<path d="M398.306 96.7773H273.928V382.398H398.306V96.7773Z" fill="#F5F5F5"/>
<path d="M390.727 375.916L390.727 103.258L281.508 103.258L281.508 375.916H390.727Z" fill="#F0F0F0"/>
<path d="M292.24 153.965C292.24 137.52 305.571 124.189 322.016 124.189H350.217C366.662 124.189 379.993 137.52 379.993 153.965H292.24Z" fill="#FAFAFA"/>
<path d="M379.992 358.967V293.83H292.238V358.967H379.992Z" fill="#F5F5F5"/>
<path d="M292.24 285.428H330.947V172.334H292.24V285.428Z" fill="#F5F5F5"/>
<path d="M341.285 285.428H379.992V172.334H341.285V285.428Z" fill="#F5F5F5"/>
<path d="M365.955 228.371H381.808C383.161 228.371 384.267 227.264 384.267 225.912C384.267 224.56 383.16 223.453 381.808 223.453H365.955C364.602 223.453 363.496 224.56 363.496 225.912C363.496 227.265 364.603 228.371 365.955 228.371Z" fill="#E0E0E0"/>
<path d="M390.727 375.916L390.727 103.258H388.761L388.761 375.916H390.727Z" fill="#F0F0F0"/>
<path d="M70.3867 271.434H191.276V100.323C191.276 86.6943 70.3857 86.6943 70.3867 100.323V271.434Z" fill="#E0E0E0"/>
<path d="M73.1641 271.434H194.053V100.323C194.052 86.6943 73.1631 86.6943 73.1641 100.323V271.434Z" fill="#EBEBEB"/>
<path d="M188.054 262.845V103.699C188.054 102.604 187.371 101.631 186.34 101.26C179.629 98.8456 161.358 96.0996 133.609 96.0996C105.862 96.0996 87.5901 98.8456 80.8781 101.26C79.8471 101.631 79.1641 102.603 79.1641 103.699V262.845C79.1641 264.275 80.3231 265.434 81.7531 265.434H185.464C186.894 265.434 188.054 264.275 188.054 262.845Z" fill="#FAFAFA"/>
<path d="M162.494 97.2496L181.344 265.43H153.814L134.834 96.0996C145.534 96.1306 154.794 96.5796 162.494 97.2496Z" fill="white"/>
<path d="M126.894 96.1602L145.874 265.43H130.664L111.744 96.7302C116.354 96.4502 121.414 96.2502 126.894 96.1602Z" fill="white"/>
<path d="M115.607 267.657L115.607 93.5176H110.329L110.329 267.657H115.607Z" fill="#EBEBEB"/>
<path d="M158.127 267.657L158.127 93.5176H152.849L152.849 267.657H158.127Z" fill="#EBEBEB"/>
<path d="M152.848 267.657L152.848 93.5176H151.894L151.894 267.657H152.848Z" fill="#E0E0E0"/>
<path d="M110.33 267.657L110.33 93.5176H109.376L109.376 267.657H110.33Z" fill="#E0E0E0"/>
<path d="M77.2285 137.156H191.229V131.878H77.2285V137.156Z" fill="#EBEBEB"/>
<path d="M76.2275 275.656H199.561V269.823H76.2275V275.656Z" fill="#F5F5F5"/>
<path d="M76.2277 269.824H70.3867V275.657H76.2277V269.824Z" fill="#E0E0E0"/>
<path d="M417.018 75.2734H447.17V66.7514H417.018V75.2734Z" fill="#F0F0F0"/>
<path d="M401.942 83.7969H432.094V75.2749H401.942V83.7969Z" fill="#E6E6E6"/>
<path d="M204.982 200.637H235.135V192.115H204.982V200.637Z" fill="#F5F5F5"/>
<path d="M160.258 307.887H190.41V299.365H160.258V307.887Z" fill="#F5F5F5"/>
<path d="M447.17 308.895H417.018V317.417H447.17V308.895Z" fill="#E6E6E6"/>
<path d="M189.907 48.6133L220.059 48.6133V40.0913H189.907V48.6133Z" fill="#F0F0F0"/>
<path d="M79.1664 359.627H109.318V351.105H79.1664V359.627Z" fill="#F5F5F5"/>
<path d="M55.3109 297.771H85.4629V289.249H55.3109V297.771Z" fill="#F5F5F5"/>
<path d="M94.2406 368.148H124.393V359.626H94.2406V368.148Z" fill="#F0F0F0"/>
<path d="M103.316 67.9844H73.1641V76.5064H103.316V67.9844Z" fill="#F0F0F0"/>
<path d="M250 427.56C357.082 427.56 443.889 422.491 443.889 416.237C443.889 409.984 357.082 404.914 250 404.914C142.918 404.914 56.1113 409.984 56.1113 416.237C56.1113 422.491 142.918 427.56 250 427.56Z" fill="#F5F5F5"/>
<path d="M132.136 127.328C126.223 128.645 119.34 136.941 126.135 145.413C132.93 153.885 121.546 150.178 119.781 165.004C118.016 179.83 131.518 177.332 127.282 187.053C123.046 196.774 152.465 212.175 170.833 200.501C189.201 188.827 190.911 163.699 185.174 154.821C179.438 145.942 171.054 145.386 174.849 135.868C178.644 126.351 174.172 116.467 162.318 116.378C153.381 116.312 158.741 110.058 146.437 110.112C136.182 110.158 127.106 117.362 132.136 127.328Z" fill="#263238"/>
<path d="M165.053 139.719C163.443 139.719 162.143 141.019 162.143 142.639C162.143 144.249 163.443 145.549 165.053 145.549C166.663 145.549 167.973 144.249 167.973 142.639C167.973 141.019 166.663 139.719 165.053 139.719ZM165.053 144.869C163.823 144.869 162.823 143.869 162.823 142.639C162.823 141.399 163.823 140.399 165.053 140.399C166.293 140.399 167.293 141.399 167.293 142.639C167.293 143.869 166.293 144.869 165.053 144.869Z" fill="white"/>
<path d="M189.668 168.168C189.652 168.168 189.636 168.167 189.621 168.164C189.485 168.138 189.397 168.007 189.422 167.871C190.318 163.212 186.69 158.7 182.849 153.924C178.366 148.349 173.285 142.03 175.074 134.506C176.601 128.086 175.919 122.723 173.155 119.405C170.892 116.688 167.365 115.436 162.674 115.677C158.373 115.899 157.098 114.735 155.749 113.502C154.291 112.17 152.61 110.653 146.439 110.696H146.438C146.301 110.696 146.189 110.585 146.188 110.448C146.187 110.31 146.299 110.197 146.437 110.196C146.51 110.196 146.583 110.195 146.654 110.195C152.874 110.195 154.58 111.755 156.087 113.133C157.412 114.344 158.558 115.392 162.649 115.178C167.503 114.928 171.17 116.241 173.54 119.085C176.407 122.527 177.125 128.045 175.561 134.622C173.828 141.908 178.612 147.858 183.239 153.611C187.155 158.48 190.853 163.08 189.914 167.966C189.89 168.084 189.785 168.168 189.668 168.168Z" fill="#263238"/>
<path d="M213.184 149.06L211.835 151.679C211.328 152.664 211.328 153.833 211.836 154.818L214.208 159.42C215.156 161.26 216.937 162.527 218.986 162.819L220.255 163C222.789 158.809 222.439 152.413 222.439 152.413L222.542 150.579C222.633 148.946 221.487 147.602 219.909 147.493L216.277 147.243C215.022 147.157 213.791 147.88 213.184 149.06Z" fill="#FFC3BD"/>
<path d="M183.413 166.568C183.361 166.525 183.468 166.677 183.517 166.754L183.729 167.059L184.21 167.705C184.545 168.143 184.918 168.574 185.297 169.004C186.057 169.864 186.868 170.707 187.713 171.515C189.405 173.135 191.276 174.569 193.222 175.847C197.114 178.423 201.463 180.176 205.982 180.893L206.832 181.01L207.257 181.071C207.303 181.076 207.185 181.075 207.153 181.089C206.923 181.109 206.638 181.225 206.546 181.316C206.355 181.497 206.818 181.23 207.258 180.57C208.211 179.248 209.076 176.982 209.723 174.685C210.363 172.35 210.85 169.852 211.192 167.317C211.376 166.049 211.485 164.764 211.597 163.482C211.704 162.221 211.788 160.862 211.792 159.709L223.307 160.265C223.161 161.831 223.011 163.186 222.843 164.634C222.676 166.06 222.456 167.479 222.254 168.907C221.816 171.76 221.311 174.627 220.561 177.558C220.195 179.027 219.762 180.514 219.207 182.037C218.636 183.559 217.99 185.133 216.983 186.787C215.963 188.406 214.598 190.286 211.988 191.758C210.686 192.471 209.056 192.952 207.464 193.013C207.092 193.027 206.633 193.016 206.34 193.002L205.749 192.962L204.567 192.88C201.419 192.593 198.302 191.977 195.279 191.09C192.272 190.162 189.34 189.011 186.557 187.594C183.762 186.193 181.137 184.518 178.603 182.706C177.336 181.797 176.104 180.835 174.9 179.809C174.295 179.298 173.707 178.764 173.107 178.212L172.204 177.356L171.742 176.894C171.569 176.712 171.455 176.605 171.189 176.298L183.413 166.568Z" fill="#1B77BB"/>
<path opacity="0.5" d="M183.413 166.568C183.361 166.525 183.468 166.677 183.517 166.754L183.729 167.059L184.21 167.705C184.545 168.143 184.918 168.574 185.297 169.004C186.057 169.864 186.868 170.707 187.713 171.515C189.405 173.135 191.276 174.569 193.222 175.847C197.114 178.423 201.463 180.176 205.982 180.893L206.832 181.01L207.257 181.071C207.303 181.076 207.185 181.075 207.153 181.089C206.923 181.109 206.638 181.225 206.546 181.316C206.355 181.497 206.818 181.23 207.258 180.57C208.211 179.248 209.076 176.982 209.723 174.685C210.363 172.35 210.85 169.852 211.192 167.317C211.376 166.049 211.485 164.764 211.597 163.482C211.704 162.221 211.788 160.862 211.792 159.709L223.307 160.265C223.161 161.831 223.011 163.186 222.843 164.634C222.676 166.06 222.456 167.479 222.254 168.907C221.816 171.76 221.311 174.627 220.561 177.558C220.195 179.027 219.762 180.514 219.207 182.037C218.636 183.559 217.99 185.133 216.983 186.787C215.963 188.406 214.598 190.286 211.988 191.758C210.686 192.471 209.056 192.952 207.464 193.013C207.092 193.027 206.633 193.016 206.34 193.002L205.749 192.962L204.567 192.88C201.419 192.593 198.302 191.977 195.279 191.09C192.272 190.162 189.34 189.011 186.557 187.594C183.762 186.193 181.137 184.518 178.603 182.706C177.336 181.797 176.104 180.835 174.9 179.809C174.295 179.298 173.707 178.764 173.107 178.212L172.204 177.356L171.742 176.894C171.569 176.712 171.455 176.605 171.189 176.298L183.413 166.568Z" fill="white"/>
<path d="M159.406 408.266C157.95 405.001 158.96 391.278 159.161 389.028C156.626 387.704 147.934 389.337 147.934 389.337C147.934 389.337 150.361 403.766 148.905 408.267C152.257 410.119 159.406 408.266 159.406 408.266Z" fill="#FFC3BD"/>
<path d="M266.765 395.1C264.022 392.807 258.261 380.281 257.452 378.171C254.594 378.096 248.139 383.14 248.139 383.14C248.139 383.14 256.661 395.033 257.331 399.716C261.159 399.907 266.765 395.1 266.765 395.1Z" fill="#FFC3BD"/>
<path d="M168.315 416.228C161 416.228 159.75 416.115 155.64 415.977C152.121 415.851 151.279 416.291 148.451 416.228C146.088 416.178 146.176 413.915 146.905 411.313C147.164 410.384 147.525 409.309 147.892 408.007C148.178 406.993 149.111 406.299 150.165 406.299H158.193C158.931 406.299 159.605 406.658 160.069 407.232C162.014 409.639 166.198 411.401 169.862 411.893C173.795 412.42 171.231 416.228 168.315 416.228Z" fill="#FFDB05"/>
<path d="M281.201 400.688C273.333 404.247 269.198 402.438 265.25 403.34C261.864 404.106 261.971 404.743 258.595 405.706C256.358 406.344 255.214 403.946 255.406 401.849C255.53 400.488 255.675 398.911 255.644 397.255C255.632 396.649 255.964 396.089 256.516 395.838L264.342 392.291C264.859 392.057 265.456 392.131 265.9 392.485C269.018 394.977 275.87 398.113 280.675 396.494C284.392 395.253 283.824 399.501 281.201 400.688Z" fill="#FFDB05"/>
<path d="M194.397 222.342C194.397 222.342 212.874 264.748 223.036 296.022C235.447 324.3 260.314 383.632 260.314 383.632C260.796 385.141 252.944 387.906 251.239 387.621C251.239 387.621 218.424 348.257 205.06 303.547C170.311 259.953 160.082 224.955 160.082 224.955L194.397 222.342Z" fill="#263238"/>
<path opacity="0.2" d="M179.585 245.562C184.679 251.148 188.272 270.552 190.104 283.232C182.908 272.634 177.274 262.937 172.93 254.62C173.441 249.877 175.522 246.393 179.585 245.562Z" fill="black"/>
<path d="M184.108 223.125C184.108 223.125 185.424 282.036 180.299 311.055C174.916 341.532 158.273 378.288 159.449 398.29C157.735 399.285 151.713 399.345 148.338 398.29C148.338 398.29 142.584 338.899 159.888 309.914C156.144 280.891 146.157 243.305 155.025 225.34L184.108 223.125Z" fill="#263238"/>
<path d="M160.288 394.126C160.32 395.135 160.412 396.893 160.674 398.234C160.768 398.718 160.442 399.166 159.955 399.244C155.888 399.895 150.003 398.952 148.135 398.616C147.777 398.552 147.506 398.268 147.449 397.909L146.843 394.066C146.76 393.541 147.172 393.068 147.704 393.078L159.45 393.304C159.906 393.313 160.273 393.671 160.288 394.126Z" fill="#263238"/>
<path opacity="0.1" d="M160.288 394.126C160.32 395.135 160.412 396.893 160.674 398.234C160.768 398.718 160.442 399.166 159.955 399.244C155.888 399.895 150.003 398.952 148.135 398.616C147.777 398.552 147.506 398.268 147.449 397.909L146.843 394.066C146.76 393.541 147.172 393.068 147.704 393.078L159.45 393.304C159.906 393.313 160.273 393.671 160.288 394.126Z" fill="white"/>
<path d="M259.417 379.28C259.921 380.228 260.828 381.914 261.547 383.139C261.785 383.544 261.65 384.053 261.25 384.299C258.254 386.144 252.937 388.002 251.182 388.592C250.834 388.709 250.454 388.59 250.233 388.297L247.848 385.149C247.523 384.72 247.67 384.1 248.154 383.864L258.291 378.917C258.705 378.716 259.201 378.873 259.417 379.28Z" fill="#263238"/>
<path opacity="0.1" d="M259.417 379.28C259.921 380.228 260.828 381.914 261.547 383.139C261.785 383.544 261.65 384.053 261.25 384.299C258.254 386.144 252.937 388.002 251.182 388.592C250.834 388.709 250.454 388.59 250.233 388.297L247.848 385.149C247.523 384.72 247.67 384.1 248.154 383.864L258.291 378.917C258.705 378.716 259.201 378.873 259.417 379.28Z" fill="white"/>
<path d="M186.544 172.425C187.521 176.184 189.101 180.315 191.002 189.401C192.756 197.052 194.03 210.506 194.398 222.342C189.263 226.921 172.173 226.143 155.027 225.34C154.974 214.189 150.396 203.901 137.938 181.067C135.049 175.773 137.39 169.527 142.966 167.65C144.456 167.149 146.045 166.652 147.687 166.194C154.072 164.415 159.318 163.005 165.171 162.222C167.111 161.962 169.134 161.754 171.077 161.588C178.086 160.989 184.793 165.689 186.544 172.425Z" fill="#1B77BB"/>
<path opacity="0.5" d="M186.544 172.425C187.521 176.184 189.101 180.315 191.002 189.401C192.756 197.052 194.03 210.506 194.398 222.342C189.263 226.921 172.173 226.143 155.027 225.34C154.974 214.189 150.396 203.901 137.938 181.067C135.049 175.773 137.39 169.527 142.966 167.65C144.456 167.149 146.045 166.652 147.687 166.194C154.072 164.415 159.318 163.005 165.171 162.222C167.111 161.962 169.134 161.754 171.077 161.588C178.086 160.989 184.793 165.689 186.544 172.425Z" fill="white"/>
<path d="M166.302 162.197L148.646 165.976C148.646 165.976 162.933 171.932 174.375 181.125C177.5 165.417 166.302 162.197 166.302 162.197Z" fill="white"/>
<path d="M144.439 146.23C147.239 151.51 151.45 161.393 148.646 165.977C148.646 165.977 164.583 170.584 173.083 177.888C174.215 166.074 166.302 162.198 166.302 162.198C159.577 162.15 158.163 157.345 157.937 152.8L144.439 146.23Z" fill="#FFC3BD"/>
<path d="M159.411 167.495C154.351 167.495 148.89 166.287 148.592 166.22C148.457 166.19 148.373 166.056 148.403 165.921C148.433 165.786 148.568 165.703 148.702 165.732C148.796 165.753 158.232 167.839 163.723 166.589C165.474 166.19 166.496 165.548 166.762 164.681C167.12 163.514 165.981 162.279 165.969 162.267C165.875 162.166 165.88 162.008 165.981 161.913C166.082 161.819 166.24 161.824 166.335 161.925C166.39 161.984 167.682 163.386 167.241 164.827C166.919 165.878 165.773 166.634 163.835 167.076C162.508 167.379 160.979 167.495 159.411 167.495Z" fill="white"/>
<path d="M166.517 167.633C166.095 167.951 165.49 167.866 165.172 167.444L164.624 166.717C164.306 166.295 164.391 165.69 164.813 165.372C165.235 165.054 165.84 165.139 166.158 165.561L166.706 166.288C167.024 166.709 166.939 167.315 166.517 167.633Z" fill="#1B77BB"/>
<path opacity="0.2" d="M149.943 148.912L157.931 152.797C157.981 153.874 158.093 154.951 158.328 155.97C155.827 156.174 151.741 154.336 150.73 151.927C150.225 150.726 149.915 149.531 149.943 148.912Z" fill="black"/>
<path d="M136.385 138.222C140.498 146.761 142.055 150.452 148.349 153.384C157.817 157.794 167.499 151.504 166.043 142.061C164.732 133.561 158.227 121.025 148.158 120.552C138.239 120.085 132.272 129.683 136.385 138.222Z" fill="#FFC3BD"/>
<path d="M139.992 125.82C144.463 132.174 144.235 142.588 138.966 144C130.932 142.764 129.225 140.687 129.225 140.687C129.225 140.687 131.819 121.1 139.992 125.82Z" fill="#263238"/>
<path d="M133.695 128.43C145.521 129.939 154.934 124.997 156.699 122.232C145.992 114.996 134.872 121.156 133.695 128.43Z" fill="#263238"/>
<path d="M158.377 133.287C158.377 133.287 160.969 136.003 162.987 137.045C162.41 138.284 160.592 138.446 160.592 138.446L158.377 133.287Z" fill="#ED847E"/>
<path d="M157.807 142.39C158.215 142.325 158.639 142.22 159.078 142.067C159.196 142.026 159.251 141.896 159.2 141.777C159.149 141.659 159.015 141.596 158.893 141.637C155.69 142.761 153.226 141.041 153.201 141.024C153.094 140.947 152.948 140.965 152.877 141.065C152.805 141.164 152.834 141.308 152.941 141.384C153.037 141.451 155.02 142.837 157.807 142.39Z" fill="#263238"/>
<path d="M136.907 147C138.772 148.041 140.728 148.131 142.134 147.636C144.249 146.89 143.626 144.307 141.632 142.663C139.837 141.183 136.573 139.788 135.127 141.427C133.702 143.041 134.775 145.81 136.907 147Z" fill="#FFC3BD"/>
<path d="M140.678 147.523C139.068 147.523 137.768 148.823 137.768 150.443C137.768 152.053 139.068 153.353 140.678 153.353C142.288 153.353 143.598 152.053 143.598 150.443C143.598 148.823 142.288 147.523 140.678 147.523ZM140.678 152.673C139.448 152.673 138.448 151.673 138.448 150.443C138.448 149.203 139.448 148.203 140.678 148.203C141.918 148.203 142.918 149.203 142.918 150.443C142.918 151.673 141.918 152.673 140.678 152.673Z" fill="white"/>
<path d="M147.193 132.622C147.295 132.556 147.367 132.452 147.385 132.326C147.662 130.364 149.23 129.696 149.248 129.688C149.481 129.59 149.584 129.328 149.471 129.101C149.358 128.875 149.074 128.771 148.836 128.868C148.754 128.903 146.785 129.739 146.442 132.174C146.408 132.417 146.591 132.648 146.852 132.69C146.977 132.71 147.098 132.683 147.193 132.622Z" fill="#263238"/>
<path d="M161.396 127.325C161.51 127.311 161.616 127.257 161.688 127.162C161.837 126.968 161.788 126.681 161.578 126.521C159.473 124.923 157.457 125.531 157.371 125.558C157.131 125.634 157.013 125.889 157.107 126.129C157.201 126.368 157.472 126.501 157.712 126.427C157.791 126.402 159.362 125.953 161.036 127.225C161.146 127.307 161.275 127.339 161.396 127.325Z" fill="#263238"/>
<path d="M161.249 130.696C161.505 131.439 161.318 132.175 160.83 132.338C160.342 132.501 159.738 132.031 159.482 131.288C159.226 130.544 159.413 129.809 159.902 129.646C160.389 129.482 160.993 129.952 161.249 130.696Z" fill="#263238"/>
<path d="M152.579 134.266C152.836 135.009 152.648 135.745 152.16 135.908C151.672 136.071 151.068 135.601 150.812 134.858C150.555 134.114 150.743 133.379 151.231 133.216C151.719 133.052 152.322 133.523 152.579 134.266Z" fill="#263238"/>
<path d="M150.811 133.653L151.625 131.895C151.625 131.895 152.098 133.569 150.811 133.653Z" fill="#263238"/>
<path d="M159.424 130.188L160.238 128.43C160.238 128.43 160.711 130.105 159.424 130.188Z" fill="#263238"/>
<path opacity="0.5" d="M148.958 182.148L140.285 185.41C143.854 192.029 146.681 197.515 148.853 202.269C147.952 191.753 148.958 182.148 148.958 182.148Z" fill="#1B77BB"/>
<path d="M203.335 416.238H214.748L214.748 251.826H203.335L203.335 416.238Z" fill="#1B77BB"/>
<path opacity="0.2" d="M203.336 251.826H214.749V279.478L203.336 276.536V251.826Z" fill="black"/>
<path d="M168.271 272.299H270.052V253.237C270.052 238.81 258.357 227.115 243.93 227.115H194.392C179.965 227.115 168.27 238.81 168.27 253.237L168.271 272.299Z" fill="#1B77BB"/>
<path d="M175.774 241.064L174.084 238.651C173.448 237.744 172.413 237.199 171.305 237.19L166.128 237.147C164.058 237.13 162.108 238.116 160.896 239.794L160.145 240.833C162.675 245.027 168.499 247.694 168.499 247.694L170.075 248.639C171.479 249.479 173.201 249.091 174.032 247.745L175.944 244.647C176.603 243.577 176.537 242.151 175.774 241.064Z" fill="#FFC3BD"/>
<path d="M152.202 179.681C151.941 180.225 151.598 181.027 151.304 181.732L150.415 183.946C149.838 185.436 149.293 186.945 148.786 188.461C147.774 191.494 146.955 194.565 146.323 197.603C146.019 199.121 145.767 200.63 145.58 202.12C145.42 203.604 145.328 205.064 145.323 206.472C145.322 209.273 145.754 211.851 146.593 213.646L146.968 214.448C146.999 214.513 147.024 214.586 147.042 214.653C147.455 216.252 148.556 218.247 149.952 220.15C151.353 222.071 153.037 223.973 154.854 225.796C156.692 227.605 158.658 229.355 160.703 231.032C161.726 231.87 162.78 232.677 163.84 233.47C164.882 234.251 166.019 235.061 167.009 235.713L161.336 244.671C159.984 243.816 158.83 243.042 157.604 242.206C156.399 241.381 155.216 240.527 154.036 239.662C151.672 237.936 149.362 236.109 147.114 234.133C144.859 232.16 142.649 230.058 140.573 227.625C139.532 226.418 138.534 225.098 137.596 223.655C136.666 222.204 135.768 220.629 135.06 218.782L135.508 219.789C133.053 215.509 132.242 211.143 131.894 207.109C131.591 203.051 131.798 199.19 132.209 195.431C132.64 191.677 133.315 188.027 134.131 184.434C134.535 182.635 134.979 180.851 135.466 179.074C135.708 178.185 135.965 177.298 136.232 176.406C136.51 175.49 136.758 174.679 137.127 173.623L152.202 179.681Z" fill="#1B77BB"/>
<path opacity="0.5" d="M152.202 179.681C151.941 180.225 151.598 181.027 151.304 181.732L150.415 183.946C149.838 185.436 149.293 186.945 148.786 188.461C147.774 191.494 146.955 194.565 146.323 197.603C146.019 199.121 145.767 200.63 145.58 202.12C145.42 203.604 145.328 205.064 145.323 206.472C145.322 209.273 145.754 211.851 146.593 213.646L146.968 214.448C146.999 214.513 147.024 214.586 147.042 214.653C147.455 216.252 148.556 218.247 149.952 220.15C151.353 222.071 153.037 223.973 154.854 225.796C156.692 227.605 158.658 229.355 160.703 231.032C161.726 231.87 162.78 232.677 163.84 233.47C164.882 234.251 166.019 235.061 167.009 235.713L161.336 244.671C159.984 243.816 158.83 243.042 157.604 242.206C156.399 241.381 155.216 240.527 154.036 239.662C151.672 237.936 149.362 236.109 147.114 234.133C144.859 232.16 142.649 230.058 140.573 227.625C139.532 226.418 138.534 225.098 137.596 223.655C136.666 222.204 135.768 220.629 135.06 218.782L135.508 219.789C133.053 215.509 132.242 211.143 131.894 207.109C131.591 203.051 131.798 199.19 132.209 195.431C132.64 191.677 133.315 188.027 134.131 184.434C134.535 182.635 134.979 180.851 135.466 179.074C135.708 178.185 135.965 177.298 136.232 176.406C136.51 175.49 136.758 174.679 137.127 173.623L152.202 179.681Z" fill="white"/>
<path opacity="0.1" d="M168.272 266.652H217.809V254.062H168.272V266.652Z" fill="white"/>
<path opacity="0.2" d="M217.809 272.299V253.237C217.809 238.81 229.504 227.115 243.931 227.115C258.358 227.115 270.053 238.81 270.053 253.237V272.299" fill="black"/>
<path d="M217.809 275.654H289.291V272.301H217.809V275.654Z" fill="#1B77BB"/>
<path opacity="0.2" d="M237.047 275.654H289.291V272.301H237.047V275.654Z" fill="black"/>
<path d="M209.043 258.621H210.896V214.496H209.043V258.621Z" fill="#E0E0E0"/>
<path d="M198.511 223.057H211.454V216.725C211.454 216.258 211.075 215.879 210.608 215.879H198.51L200.628 219.468L198.511 223.057Z" fill="#FFDB05"/>
<path d="M412.221 59.8066L341.846 75.8476L332.832 81.4176L412.221 59.8066Z" fill="#1B77BB"/>
<path opacity="0.2" d="M341.846 75.8476L332.832 81.4176L412.221 59.8066" fill="black"/>
<path d="M412.221 59.8066L341.846 75.8476L348.471 80.7226L412.221 59.8066Z" fill="#1B77BB"/>
<path d="M375.911 73.6727L340.607 72.2227C338.836 72.1497 337.447 70.6417 337.52 68.8707L338.177 52.8847C338.25 51.1137 339.758 49.7247 341.529 49.7977L376.832 51.2477C378.603 51.3207 379.992 52.8287 379.919 54.5997L379.262 70.5857C379.19 72.3557 377.682 73.7447 375.911 73.6727Z" fill="#1B77BB"/>
<path opacity="0.8" d="M375.911 73.6727L340.607 72.2227C338.836 72.1497 337.447 70.6417 337.52 68.8707L338.177 52.8847C338.25 51.1137 339.758 49.7247 341.529 49.7977L376.832 51.2477C378.603 51.3207 379.992 52.8287 379.919 54.5997L379.262 70.5857C379.19 72.3557 377.682 73.7447 375.911 73.6727Z" fill="white"/>
<path opacity="0.4" d="M358.565 66.0079C358.465 66.0079 358.366 65.9779 358.281 65.9199L340.034 53.3269C339.807 53.1699 339.75 52.8589 339.906 52.6319C340.063 52.4049 340.374 52.3479 340.602 52.5039L358.59 64.9179L377.535 54.0219C377.775 53.8839 378.08 53.9669 378.218 54.2059C378.356 54.4449 378.273 54.7509 378.034 54.8889L358.816 65.9429C358.737 65.9859 358.651 66.0079 358.565 66.0079Z" fill="#1B77BB"/>
<path opacity="0.4" d="M377.129 70.8853C377.031 70.8853 376.931 70.8563 376.844 70.7963L366.385 63.5273C366.158 63.3693 366.102 63.0583 366.26 62.8313C366.418 62.6053 366.729 62.5493 366.956 62.7063L377.415 69.9753C377.642 70.1333 377.698 70.4443 377.54 70.6713C377.443 70.8113 377.287 70.8853 377.129 70.8853Z" fill="#1B77BB"/>
<path opacity="0.4" d="M339.664 69.3476C339.491 69.3476 339.324 69.2586 339.231 69.0986C339.093 68.8596 339.174 68.5536 339.413 68.4156L350.433 62.0286C350.672 61.8896 350.978 61.9716 351.116 62.2106C351.254 62.4496 351.173 62.7556 350.934 62.8936L339.913 69.2796C339.835 69.3266 339.749 69.3476 339.664 69.3476Z" fill="#1B77BB"/>
<path d="M412.221 59.8066L351.888 72.1396L348.471 80.7226L412.221 59.8066Z" fill="#1B77BB"/>
<path opacity="0.2" d="M412.221 59.8066L351.888 72.1396L348.471 80.7226L412.221 59.8066Z" fill="black"/>
<path d="M412.222 59.8066L351.889 72.1396L370.889 79.0286L412.222 59.8066Z" fill="#1B77BB"/>
<path d="M328.583 88.3267C328.356 88.3267 328.151 88.1717 328.097 87.9417C328.034 87.6727 328.201 87.4037 328.469 87.3407C329.592 87.0767 330.689 86.7297 331.727 86.3097C331.984 86.2067 332.274 86.3307 332.378 86.5857C332.482 86.8417 332.358 87.1327 332.102 87.2367C331.016 87.6757 329.871 88.0377 328.698 88.3137C328.66 88.3227 328.621 88.3267 328.583 88.3267Z" fill="#1B77BB"/>
<path d="M291.003 261.075C290.738 261.075 290.517 260.867 290.504 260.599C290.491 260.323 290.703 260.089 290.979 260.075C293.293 259.963 295.652 259.749 297.988 259.442C298.26 259.405 298.513 259.598 298.549 259.872C298.585 260.146 298.393 260.397 298.119 260.433C295.756 260.744 293.37 260.96 291.029 261.074C291.02 261.075 291.012 261.075 291.003 261.075ZM305.026 259.23C304.796 259.23 304.588 259.07 304.538 258.836C304.48 258.566 304.651 258.3 304.921 258.241C307.275 257.732 309.562 257.128 311.719 256.447C311.982 256.364 312.263 256.51 312.346 256.773C312.429 257.036 312.283 257.317 312.02 257.4C309.834 258.09 307.516 258.702 305.132 259.218C305.096 259.227 305.06 259.23 305.026 259.23ZM318.482 254.909C318.292 254.909 318.111 254.801 318.027 254.617C317.912 254.366 318.023 254.069 318.274 253.954C320.098 253.121 321.742 252.227 323.161 251.296C323.557 251.036 323.953 250.772 324.346 250.503C324.575 250.347 324.885 250.406 325.041 250.634C325.196 250.862 325.138 251.173 324.91 251.329C324.512 251.601 324.111 251.868 323.71 252.132C322.249 253.09 320.56 254.009 318.69 254.863C318.622 254.895 318.552 254.909 318.482 254.909ZM330.248 247.119C330.108 247.119 329.969 247.06 329.87 246.946C329.689 246.737 329.712 246.421 329.921 246.241C331.777 244.633 333.431 242.962 334.835 241.273C335.012 241.061 335.327 241.032 335.539 241.208C335.751 241.385 335.78 241.7 335.604 241.912C334.165 243.643 332.473 245.353 330.576 246.997C330.48 247.079 330.364 247.119 330.248 247.119ZM339.138 236.218C339.061 236.218 338.983 236.2 338.91 236.163C338.664 236.037 338.567 235.736 338.693 235.49C339.016 234.86 339.316 234.215 339.585 233.572C340.192 232.123 340.698 230.575 341.088 228.972C341.153 228.704 341.425 228.539 341.692 228.605C341.96 228.67 342.125 228.941 342.059 229.209C341.656 230.863 341.134 232.461 340.507 233.959C340.228 234.625 339.917 235.294 339.583 235.946C339.495 236.119 339.32 236.218 339.138 236.218ZM342.609 222.598C342.598 222.598 342.586 222.598 342.575 222.597C342.3 222.578 342.091 222.34 342.11 222.065C342.202 220.701 342.247 219.263 342.247 217.668C342.247 216.793 342.233 215.916 342.211 215.037C342.204 214.761 342.422 214.531 342.698 214.524C342.976 214.497 343.204 214.734 343.211 215.011C343.234 215.898 343.248 216.784 343.248 217.667C343.248 219.284 343.203 220.745 343.109 222.131C343.09 222.396 342.87 222.598 342.609 222.598ZM342.417 208.453C342.151 208.453 341.93 208.244 341.918 207.975C341.827 205.941 341.742 203.759 341.742 201.576L341.745 200.874C341.747 200.598 341.938 200.358 342.249 200.378C342.525 200.38 342.747 200.606 342.745 200.882L342.742 201.577C342.742 203.739 342.826 205.909 342.917 207.931C342.929 208.207 342.716 208.44 342.44 208.453C342.433 208.452 342.425 208.453 342.417 208.453ZM385.173 202.293C384.264 202.293 383.374 202.27 382.519 202.232C382.243 202.22 382.029 201.987 382.041 201.711C382.053 201.435 382.287 201.221 382.562 201.233C383.403 201.27 384.278 201.293 385.173 201.293C386.742 201.293 388.217 201.219 389.558 201.075C389.831 201.044 390.079 201.244 390.109 201.518C390.139 201.793 389.94 202.039 389.666 202.069C388.29 202.217 386.778 202.293 385.173 202.293ZM375.478 201.784C375.465 201.784 375.452 201.784 375.439 201.783C373.095 201.603 370.72 201.389 368.377 201.148C368.102 201.12 367.903 200.874 367.931 200.599C367.959 200.324 368.203 200.12 368.48 200.153C370.814 200.393 373.181 200.606 375.516 200.786C375.791 200.807 375.997 201.047 375.976 201.323C375.956 201.585 375.737 201.784 375.478 201.784ZM396.45 200.352C396.26 200.352 396.078 200.243 395.994 200.058C395.88 199.807 395.992 199.51 396.243 199.396C398.488 198.379 400.199 196.927 401.328 195.079C401.472 194.843 401.779 194.769 402.016 194.913C402.252 195.057 402.326 195.365 402.182 195.601C400.946 197.623 399.087 199.206 396.656 200.307C396.589 200.338 396.519 200.352 396.45 200.352ZM361.4 200.334C361.378 200.334 361.357 200.333 361.335 200.33C359.006 200.029 356.644 199.693 354.315 199.33C354.042 199.288 353.855 199.032 353.898 198.759C353.941 198.486 354.195 198.3 354.469 198.342C356.789 198.703 359.143 199.038 361.463 199.338C361.737 199.373 361.93 199.624 361.895 199.898C361.862 200.15 361.647 200.334 361.4 200.334ZM347.414 198.157C347.384 198.157 347.354 198.154 347.324 198.149C345.012 197.728 342.67 197.27 340.365 196.788C340.095 196.731 339.921 196.466 339.978 196.196C340.035 195.926 340.3 195.754 340.57 195.809C342.867 196.289 345.199 196.745 347.503 197.165C347.775 197.215 347.955 197.475 347.905 197.746C347.862 197.988 347.651 198.157 347.414 198.157ZM333.56 195.262C333.522 195.262 333.483 195.258 333.444 195.248C331.155 194.708 328.841 194.13 326.565 193.53C326.298 193.46 326.138 193.186 326.209 192.919C326.279 192.652 326.551 192.492 326.82 192.563C329.087 193.161 331.393 193.736 333.674 194.275C333.943 194.338 334.109 194.608 334.046 194.877C333.992 195.106 333.786 195.262 333.56 195.262ZM342.739 194.323C342.715 194.323 342.69 194.321 342.665 194.318C342.392 194.277 342.204 194.023 342.244 193.75C342.613 191.279 343.201 188.939 343.991 186.797C344.086 186.538 344.374 186.407 344.633 186.501C344.892 186.597 345.025 186.884 344.929 187.143C344.162 189.222 343.592 191.494 343.233 193.898C343.196 194.145 342.983 194.323 342.739 194.323ZM319.874 191.654C319.828 191.654 319.78 191.647 319.734 191.634C317.476 190.976 315.194 190.279 312.953 189.561C312.69 189.477 312.545 189.195 312.629 188.932C312.713 188.669 312.996 188.525 313.258 188.608C315.491 189.323 317.764 190.017 320.014 190.673C320.279 190.75 320.431 191.028 320.354 191.293C320.29 191.512 320.09 191.654 319.874 191.654ZM403.182 189.075C402.947 189.075 402.738 188.909 402.692 188.671C402.314 186.728 401.122 184.842 399.148 183.063C398.943 182.878 398.926 182.562 399.111 182.357C399.296 182.152 399.612 182.136 399.817 182.32C401.955 184.246 403.252 186.319 403.673 188.48C403.726 188.751 403.549 189.013 403.278 189.066C403.246 189.072 403.214 189.075 403.182 189.075ZM306.397 187.328C306.342 187.328 306.285 187.319 306.23 187.299C303.954 186.492 301.718 185.654 299.583 184.807C299.326 184.705 299.201 184.414 299.302 184.158C299.404 183.901 299.694 183.775 299.951 183.877C302.074 184.719 304.299 185.553 306.563 186.356C306.823 186.448 306.96 186.734 306.867 186.994C306.795 187.2 306.603 187.328 306.397 187.328ZM293.242 182.097C293.174 182.097 293.105 182.083 293.038 182.053C290.836 181.069 288.679 180.043 286.625 179.001C286.379 178.876 286.28 178.575 286.405 178.329C286.53 178.083 286.831 177.984 287.077 178.109C289.117 179.143 291.259 180.163 293.446 181.14C293.698 181.253 293.811 181.548 293.699 181.8C293.616 181.986 293.433 182.097 293.242 182.097ZM347.759 181.234C347.656 181.234 347.552 181.202 347.462 181.136C347.24 180.972 347.193 180.659 347.357 180.437C348.72 178.593 350.32 177.047 352.114 175.843C352.285 175.728 352.458 175.616 352.632 175.508C352.866 175.362 353.175 175.433 353.321 175.668C353.467 175.902 353.396 176.211 353.161 176.357C352.996 176.46 352.833 176.565 352.671 176.674C350.973 177.814 349.456 179.281 348.161 181.032C348.064 181.164 347.912 181.234 347.759 181.234ZM393.631 179.233C393.551 179.233 393.469 179.214 393.393 179.173C392.555 178.719 391.73 178.3 390.952 177.915C389.683 177.287 388.369 176.706 387.046 176.188C386.789 176.087 386.662 175.797 386.763 175.54C386.864 175.282 387.153 175.157 387.411 175.257C388.76 175.785 390.1 176.378 391.396 177.019C392.185 177.409 393.021 177.833 393.87 178.294C394.113 178.426 394.203 178.729 394.071 178.972C393.98 179.138 393.808 179.233 393.631 179.233ZM280.63 175.681C280.545 175.681 280.458 175.659 280.379 175.613C278.291 174.401 276.261 173.135 274.348 171.851C274.119 171.697 274.058 171.386 274.211 171.157C274.365 170.928 274.675 170.867 274.905 171.02C276.801 172.292 278.812 173.546 280.881 174.748C281.12 174.887 281.201 175.193 281.062 175.431C280.97 175.592 280.802 175.681 280.63 175.681ZM380.479 174.112C380.441 174.112 380.402 174.108 380.363 174.099C378.092 173.56 375.767 173.179 373.454 172.965C373.179 172.94 372.977 172.696 373.002 172.421C373.027 172.146 373.275 171.945 373.546 171.969C375.906 172.187 378.277 172.576 380.594 173.125C380.862 173.189 381.029 173.458 380.965 173.727C380.911 173.957 380.706 174.112 380.479 174.112ZM359.427 173.786C359.202 173.786 358.997 173.632 358.942 173.404C358.877 173.135 359.042 172.865 359.31 172.8C360.947 172.404 362.694 172.126 364.649 171.951C365.233 171.898 365.818 171.857 366.404 171.826C366.686 171.811 366.915 172.023 366.93 172.299C366.945 172.575 366.733 172.81 366.457 172.825C365.884 172.855 365.311 172.896 364.739 172.947C362.833 173.117 361.134 173.387 359.546 173.772C359.506 173.781 359.466 173.786 359.427 173.786ZM268.898 167.783C268.79 167.783 268.681 167.748 268.59 167.676C266.694 166.189 264.873 164.634 263.177 163.055C262.975 162.867 262.964 162.55 263.152 162.348C263.341 162.146 263.657 162.135 263.859 162.323C265.534 163.883 267.333 165.419 269.207 166.889C269.424 167.059 269.462 167.374 269.292 167.591C269.193 167.717 269.047 167.783 268.898 167.783ZM258.575 158.129C258.436 158.129 258.298 158.072 258.199 157.959C256.616 156.159 255.137 154.269 253.806 152.34C253.649 152.113 253.706 151.801 253.933 151.645C254.16 151.487 254.472 151.545 254.629 151.772C255.939 153.669 257.393 155.528 258.951 157.299C259.133 157.506 259.113 157.822 258.906 158.005C258.81 158.088 258.693 158.129 258.575 158.129ZM250.572 146.495C250.391 146.495 250.216 146.396 250.127 146.224C249.017 144.075 248.066 141.869 247.299 139.666C247.208 139.405 247.346 139.12 247.607 139.029C247.868 138.937 248.153 139.076 248.243 139.337C248.995 141.495 249.927 143.658 251.016 145.765C251.143 146.01 251.047 146.312 250.801 146.439C250.727 146.477 250.649 146.495 250.572 146.495ZM245.97 133.166C245.732 133.166 245.522 132.996 245.478 132.754C245.383 132.221 245.297 131.687 245.221 131.15C244.976 129.41 244.852 127.62 244.852 125.828L244.853 125.623C244.854 125.347 245.081 125.115 245.355 125.125C245.631 125.126 245.854 125.351 245.853 125.627L245.852 125.828C245.852 127.573 245.973 129.317 246.211 131.011C246.285 131.535 246.369 132.058 246.462 132.578C246.511 132.85 246.33 133.11 246.058 133.158C246.029 133.163 245.999 133.166 245.97 133.166ZM246.02 119.089C245.99 119.089 245.96 119.086 245.929 119.081C245.658 119.031 245.478 118.77 245.528 118.499C245.959 116.16 246.596 113.838 247.423 111.599C247.519 111.34 247.806 111.207 248.065 111.303C248.324 111.398 248.457 111.686 248.361 111.945C247.554 114.131 246.932 116.396 246.512 118.68C246.467 118.92 246.257 119.089 246.02 119.089ZM250.902 105.876C250.817 105.876 250.73 105.854 250.651 105.808C250.412 105.669 250.331 105.363 250.47 105.124C251.684 103.039 253.079 101.076 254.616 99.2879C254.796 99.0779 255.112 99.0549 255.321 99.2349C255.531 99.4149 255.554 99.7309 255.374 99.9399C253.876 101.682 252.517 103.595 251.333 105.627C251.242 105.787 251.074 105.876 250.902 105.876ZM260.105 95.2349C259.956 95.2349 259.809 95.1689 259.71 95.0419C259.541 94.8239 259.58 94.5099 259.798 94.3399C261.635 92.9109 263.671 91.6239 265.85 90.5139C266.096 90.3879 266.397 90.4859 266.522 90.7329C266.647 90.9789 266.549 91.2799 266.303 91.4049C264.18 92.4859 262.198 93.7389 260.411 95.1289C260.321 95.1999 260.213 95.2349 260.105 95.2349ZM321.557 89.0299C321.555 89.0299 321.553 89.0299 321.55 89.0299C319.429 89.0019 317.169 88.8029 314.439 88.4039C314.166 88.3639 313.977 88.1099 314.017 87.8369C314.057 87.5639 314.311 87.3749 314.584 87.4149C317.269 87.8079 319.487 88.0039 321.563 88.0299C321.839 88.0339 322.06 88.2599 322.056 88.5369C322.053 88.8099 321.83 89.0299 321.557 89.0299ZM272.616 88.7709C272.405 88.7709 272.21 88.6369 272.141 88.4259C272.055 88.1639 272.199 87.8809 272.461 87.7949C274.6 87.0959 276.923 86.4939 279.365 86.0029C279.637 85.9499 279.9 86.1239 279.954 86.3949C280.008 86.6659 279.833 86.9289 279.562 86.9839C277.158 87.4669 274.873 88.0589 272.772 88.7459C272.72 88.7629 272.667 88.7709 272.616 88.7709ZM307.538 87.1989C307.508 87.1989 307.477 87.1959 307.446 87.1909C305.3 86.7919 302.868 86.3389 300.49 86.0019C300.217 85.9629 300.026 85.7099 300.065 85.4369C300.104 85.1639 300.355 84.9729 300.63 85.0119C303.029 85.3519 305.473 85.8069 307.629 86.2079C307.901 86.2589 308.079 86.5199 308.029 86.7909C307.985 87.0309 307.775 87.1989 307.538 87.1989ZM286.456 85.9109C286.206 85.9109 285.989 85.7229 285.96 85.4679C285.929 85.1939 286.125 84.9459 286.4 84.9139C287.673 84.7679 289.028 84.6369 290.426 84.5259C291.315 84.4559 292.244 84.4199 293.189 84.4199L293.517 84.4219C293.793 84.4239 294.015 84.6499 294.013 84.9269C294.01 85.2029 293.749 85.4189 293.509 85.4219L293.189 85.4199C292.27 85.4199 291.367 85.4549 290.505 85.5229C289.118 85.6329 287.776 85.7629 286.514 85.9079C286.494 85.9099 286.475 85.9109 286.456 85.9109Z" fill="#1B77BB"/>
<path d="M283.824 261.101C283.816 261.101 283.809 261.101 283.802 261.101C282.61 261.048 281.427 260.966 280.286 260.856C280.011 260.829 279.81 260.585 279.836 260.31C279.863 260.035 280.105 259.834 280.382 259.86C281.506 259.969 282.671 260.05 283.846 260.101C284.122 260.113 284.336 260.347 284.324 260.623C284.311 260.891 284.09 261.101 283.824 261.101Z" fill="#1B77BB"/>
<g opacity="0.6">
<path d="M328.583 88.3267C328.356 88.3267 328.151 88.1717 328.097 87.9417C328.034 87.6727 328.201 87.4037 328.469 87.3407C329.592 87.0767 330.689 86.7297 331.727 86.3097C331.984 86.2067 332.274 86.3307 332.378 86.5857C332.482 86.8417 332.358 87.1327 332.102 87.2367C331.016 87.6757 329.871 88.0377 328.698 88.3137C328.66 88.3227 328.621 88.3267 328.583 88.3267Z" fill="white"/>
<path d="M291.003 261.075C290.738 261.075 290.517 260.867 290.504 260.599C290.491 260.323 290.703 260.089 290.979 260.075C293.293 259.963 295.652 259.749 297.988 259.442C298.26 259.405 298.513 259.598 298.549 259.872C298.585 260.146 298.393 260.397 298.119 260.433C295.756 260.744 293.37 260.96 291.029 261.074C291.02 261.075 291.012 261.075 291.003 261.075ZM305.026 259.23C304.796 259.23 304.588 259.07 304.538 258.836C304.48 258.566 304.651 258.3 304.921 258.241C307.275 257.732 309.562 257.128 311.719 256.447C311.982 256.364 312.263 256.51 312.346 256.773C312.429 257.036 312.283 257.317 312.02 257.4C309.834 258.09 307.516 258.702 305.132 259.218C305.096 259.227 305.06 259.23 305.026 259.23ZM318.482 254.909C318.292 254.909 318.111 254.801 318.027 254.617C317.912 254.366 318.023 254.069 318.274 253.954C320.098 253.121 321.742 252.227 323.161 251.296C323.557 251.036 323.953 250.772 324.346 250.503C324.575 250.347 324.885 250.406 325.041 250.634C325.196 250.862 325.138 251.173 324.91 251.329C324.512 251.601 324.111 251.868 323.71 252.132C322.249 253.09 320.56 254.009 318.69 254.863C318.622 254.895 318.552 254.909 318.482 254.909ZM330.248 247.119C330.108 247.119 329.969 247.06 329.87 246.946C329.689 246.737 329.712 246.421 329.921 246.241C331.777 244.633 333.431 242.962 334.835 241.273C335.012 241.061 335.327 241.032 335.539 241.208C335.751 241.385 335.78 241.7 335.604 241.912C334.165 243.643 332.473 245.353 330.576 246.997C330.48 247.079 330.364 247.119 330.248 247.119ZM339.138 236.218C339.061 236.218 338.983 236.2 338.91 236.163C338.664 236.037 338.567 235.736 338.693 235.49C339.016 234.86 339.316 234.215 339.585 233.572C340.192 232.123 340.698 230.575 341.088 228.972C341.153 228.704 341.425 228.539 341.692 228.605C341.96 228.67 342.125 228.941 342.059 229.209C341.656 230.863 341.134 232.461 340.507 233.959C340.228 234.625 339.917 235.294 339.583 235.946C339.495 236.119 339.32 236.218 339.138 236.218ZM342.609 222.598C342.598 222.598 342.586 222.598 342.575 222.597C342.3 222.578 342.091 222.34 342.11 222.065C342.202 220.701 342.247 219.263 342.247 217.668C342.247 216.793 342.233 215.916 342.211 215.037C342.204 214.761 342.422 214.531 342.698 214.524C342.976 214.497 343.204 214.734 343.211 215.011C343.234 215.898 343.248 216.784 343.248 217.667C343.248 219.284 343.203 220.745 343.109 222.131C343.09 222.396 342.87 222.598 342.609 222.598ZM342.417 208.453C342.151 208.453 341.93 208.244 341.918 207.975C341.827 205.941 341.742 203.759 341.742 201.576L341.745 200.874C341.747 200.598 341.938 200.358 342.249 200.378C342.525 200.38 342.747 200.606 342.745 200.882L342.742 201.577C342.742 203.739 342.826 205.909 342.917 207.931C342.929 208.207 342.716 208.44 342.44 208.453C342.433 208.452 342.425 208.453 342.417 208.453ZM385.173 202.293C384.264 202.293 383.374 202.27 382.519 202.232C382.243 202.22 382.029 201.987 382.041 201.711C382.053 201.435 382.287 201.221 382.562 201.233C383.403 201.27 384.278 201.293 385.173 201.293C386.742 201.293 388.217 201.219 389.558 201.075C389.831 201.044 390.079 201.244 390.109 201.518C390.139 201.793 389.94 202.039 389.666 202.069C388.29 202.217 386.778 202.293 385.173 202.293ZM375.478 201.784C375.465 201.784 375.452 201.784 375.439 201.783C373.095 201.603 370.72 201.389 368.377 201.148C368.102 201.12 367.903 200.874 367.931 200.599C367.959 200.324 368.203 200.12 368.48 200.153C370.814 200.393 373.181 200.606 375.516 200.786C375.791 200.807 375.997 201.047 375.976 201.323C375.956 201.585 375.737 201.784 375.478 201.784ZM396.45 200.352C396.26 200.352 396.078 200.243 395.994 200.058C395.88 199.807 395.992 199.51 396.243 199.396C398.488 198.379 400.199 196.927 401.328 195.079C401.472 194.843 401.779 194.769 402.016 194.913C402.252 195.057 402.326 195.365 402.182 195.601C400.946 197.623 399.087 199.206 396.656 200.307C396.589 200.338 396.519 200.352 396.45 200.352ZM361.4 200.334C361.378 200.334 361.357 200.333 361.335 200.33C359.006 200.029 356.644 199.693 354.315 199.33C354.042 199.288 353.855 199.032 353.898 198.759C353.941 198.486 354.195 198.3 354.469 198.342C356.789 198.703 359.143 199.038 361.463 199.338C361.737 199.373 361.93 199.624 361.895 199.898C361.862 200.15 361.647 200.334 361.4 200.334ZM347.414 198.157C347.384 198.157 347.354 198.154 347.324 198.149C345.012 197.728 342.67 197.27 340.365 196.788C340.095 196.731 339.921 196.466 339.978 196.196C340.035 195.926 340.3 195.754 340.57 195.809C342.867 196.289 345.199 196.745 347.503 197.165C347.775 197.215 347.955 197.475 347.905 197.746C347.862 197.988 347.651 198.157 347.414 198.157ZM333.56 195.262C333.522 195.262 333.483 195.258 333.444 195.248C331.155 194.708 328.841 194.13 326.565 193.53C326.298 193.46 326.138 193.186 326.209 192.919C326.279 192.652 326.551 192.492 326.82 192.563C329.087 193.161 331.393 193.736 333.674 194.275C333.943 194.338 334.109 194.608 334.046 194.877C333.992 195.106 333.786 195.262 333.56 195.262ZM342.739 194.323C342.715 194.323 342.69 194.321 342.665 194.318C342.392 194.277 342.204 194.023 342.244 193.75C342.613 191.279 343.201 188.939 343.991 186.797C344.086 186.538 344.374 186.407 344.633 186.501C344.892 186.597 345.025 186.884 344.929 187.143C344.162 189.222 343.592 191.494 343.233 193.898C343.196 194.145 342.983 194.323 342.739 194.323ZM319.874 191.654C319.828 191.654 319.78 191.647 319.734 191.634C317.476 190.976 315.194 190.279 312.953 189.561C312.69 189.477 312.545 189.195 312.629 188.932C312.713 188.669 312.996 188.525 313.258 188.608C315.491 189.323 317.764 190.017 320.014 190.673C320.279 190.75 320.431 191.028 320.354 191.293C320.29 191.512 320.09 191.654 319.874 191.654ZM403.182 189.075C402.947 189.075 402.738 188.909 402.692 188.671C402.314 186.728 401.122 184.842 399.148 183.063C398.943 182.878 398.926 182.562 399.111 182.357C399.296 182.152 399.612 182.136 399.817 182.32C401.955 184.246 403.252 186.319 403.673 188.48C403.726 188.751 403.549 189.013 403.278 189.066C403.246 189.072 403.214 189.075 403.182 189.075ZM306.397 187.328C306.342 187.328 306.285 187.319 306.23 187.299C303.954 186.492 301.718 185.654 299.583 184.807C299.326 184.705 299.201 184.414 299.302 184.158C299.404 183.901 299.694 183.775 299.951 183.877C302.074 184.719 304.299 185.553 306.563 186.356C306.823 186.448 306.96 186.734 306.867 186.994C306.795 187.2 306.603 187.328 306.397 187.328ZM293.242 182.097C293.174 182.097 293.105 182.083 293.038 182.053C290.836 181.069 288.679 180.043 286.625 179.001C286.379 178.876 286.28 178.575 286.405 178.329C286.53 178.083 286.831 177.984 287.077 178.109C289.117 179.143 291.259 180.163 293.446 181.14C293.698 181.253 293.811 181.548 293.699 181.8C293.616 181.986 293.433 182.097 293.242 182.097ZM347.759 181.234C347.656 181.234 347.552 181.202 347.462 181.136C347.24 180.972 347.193 180.659 347.357 180.437C348.72 178.593 350.32 177.047 352.114 175.843C352.285 175.728 352.458 175.616 352.632 175.508C352.866 175.362 353.175 175.433 353.321 175.668C353.467 175.902 353.396 176.211 353.161 176.357C352.996 176.46 352.833 176.565 352.671 176.674C350.973 177.814 349.456 179.281 348.161 181.032C348.064 181.164 347.912 181.234 347.759 181.234ZM393.631 179.233C393.551 179.233 393.469 179.214 393.393 179.173C392.555 178.719 391.73 178.3 390.952 177.915C389.683 177.287 388.369 176.706 387.046 176.188C386.789 176.087 386.662 175.797 386.763 175.54C386.864 175.282 387.153 175.157 387.411 175.257C388.76 175.785 390.1 176.378 391.396 177.019C392.185 177.409 393.021 177.833 393.87 178.294C394.113 178.426 394.203 178.729 394.071 178.972C393.98 179.138 393.808 179.233 393.631 179.233ZM280.63 175.681C280.545 175.681 280.458 175.659 280.379 175.613C278.291 174.401 276.261 173.135 274.348 171.851C274.119 171.697 274.058 171.386 274.211 171.157C274.365 170.928 274.675 170.867 274.905 171.02C276.801 172.292 278.812 173.546 280.881 174.748C281.12 174.887 281.201 175.193 281.062 175.431C280.97 175.592 280.802 175.681 280.63 175.681ZM380.479 174.112C380.441 174.112 380.402 174.108 380.363 174.099C378.092 173.56 375.767 173.179 373.454 172.965C373.179 172.94 372.977 172.696 373.002 172.421C373.027 172.146 373.275 171.945 373.546 171.969C375.906 172.187 378.277 172.576 380.594 173.125C380.862 173.189 381.029 173.458 380.965 173.727C380.911 173.957 380.706 174.112 380.479 174.112ZM359.427 173.786C359.202 173.786 358.997 173.632 358.942 173.404C358.877 173.135 359.042 172.865 359.31 172.8C360.947 172.404 362.694 172.126 364.649 171.951C365.233 171.898 365.818 171.857 366.404 171.826C366.686 171.811 366.915 172.023 366.93 172.299C366.945 172.575 366.733 172.81 366.457 172.825C365.884 172.855 365.311 172.896 364.739 172.947C362.833 173.117 361.134 173.387 359.546 173.772C359.506 173.781 359.466 173.786 359.427 173.786ZM268.898 167.783C268.79 167.783 268.681 167.748 268.59 167.676C266.694 166.189 264.873 164.634 263.177 163.055C262.975 162.867 262.964 162.55 263.152 162.348C263.341 162.146 263.657 162.135 263.859 162.323C265.534 163.883 267.333 165.419 269.207 166.889C269.424 167.059 269.462 167.374 269.292 167.591C269.193 167.717 269.047 167.783 268.898 167.783ZM258.575 158.129C258.436 158.129 258.298 158.072 258.199 157.959C256.616 156.159 255.137 154.269 253.806 152.34C253.649 152.113 253.706 151.801 253.933 151.645C254.16 151.487 254.472 151.545 254.629 151.772C255.939 153.669 257.393 155.528 258.951 157.299C259.133 157.506 259.113 157.822 258.906 158.005C258.81 158.088 258.693 158.129 258.575 158.129ZM250.572 146.495C250.391 146.495 250.216 146.396 250.127 146.224C249.017 144.075 248.066 141.869 247.299 139.666C247.208 139.405 247.346 139.12 247.607 139.029C247.868 138.937 248.153 139.076 248.243 139.337C248.995 141.495 249.927 143.658 251.016 145.765C251.143 146.01 251.047 146.312 250.801 146.439C250.727 146.477 250.649 146.495 250.572 146.495ZM245.97 133.166C245.732 133.166 245.522 132.996 245.478 132.754C245.383 132.221 245.297 131.687 245.221 131.15C244.976 129.41 244.852 127.62 244.852 125.828L244.853 125.623C244.854 125.347 245.081 125.115 245.355 125.125C245.631 125.126 245.854 125.351 245.853 125.627L245.852 125.828C245.852 127.573 245.973 129.317 246.211 131.011C246.285 131.535 246.369 132.058 246.462 132.578C246.511 132.85 246.33 133.11 246.058 133.158C246.029 133.163 245.999 133.166 245.97 133.166ZM246.02 119.089C245.99 119.089 245.96 119.086 245.929 119.081C245.658 119.031 245.478 118.77 245.528 118.499C245.959 116.16 246.596 113.838 247.423 111.599C247.519 111.34 247.806 111.207 248.065 111.303C248.324 111.398 248.457 111.686 248.361 111.945C247.554 114.131 246.932 116.396 246.512 118.68C246.467 118.92 246.257 119.089 246.02 119.089ZM250.902 105.876C250.817 105.876 250.73 105.854 250.651 105.808C250.412 105.669 250.331 105.363 250.47 105.124C251.684 103.039 253.079 101.076 254.616 99.2879C254.796 99.0779 255.112 99.0549 255.321 99.2349C255.531 99.4149 255.554 99.7309 255.374 99.9399C253.876 101.682 252.517 103.595 251.333 105.627C251.242 105.787 251.074 105.876 250.902 105.876ZM260.105 95.2349C259.956 95.2349 259.809 95.1689 259.71 95.0419C259.541 94.8239 259.58 94.5099 259.798 94.3399C261.635 92.9109 263.671 91.6239 265.85 90.5139C266.096 90.3879 266.397 90.4859 266.522 90.7329C266.647 90.9789 266.549 91.2799 266.303 91.4049C264.18 92.4859 262.198 93.7389 260.411 95.1289C260.321 95.1999 260.213 95.2349 260.105 95.2349ZM321.557 89.0299C321.555 89.0299 321.553 89.0299 321.55 89.0299C319.429 89.0019 317.169 88.8029 314.439 88.4039C314.166 88.3639 313.977 88.1099 314.017 87.8369C314.057 87.5639 314.311 87.3749 314.584 87.4149C317.269 87.8079 319.487 88.0039 321.563 88.0299C321.839 88.0339 322.06 88.2599 322.056 88.5369C322.053 88.8099 321.83 89.0299 321.557 89.0299ZM272.616 88.7709C272.405 88.7709 272.21 88.6369 272.141 88.4259C272.055 88.1639 272.199 87.8809 272.461 87.7949C274.6 87.0959 276.923 86.4939 279.365 86.0029C279.637 85.9499 279.9 86.1239 279.954 86.3949C280.008 86.6659 279.833 86.9289 279.562 86.9839C277.158 87.4669 274.873 88.0589 272.772 88.7459C272.72 88.7629 272.667 88.7709 272.616 88.7709ZM307.538 87.1989C307.508 87.1989 307.477 87.1959 307.446 87.1909C305.3 86.7919 302.868 86.3389 300.49 86.0019C300.217 85.9629 300.026 85.7099 300.065 85.4369C300.104 85.1639 300.355 84.9729 300.63 85.0119C303.029 85.3519 305.473 85.8069 307.629 86.2079C307.901 86.2589 308.079 86.5199 308.029 86.7909C307.985 87.0309 307.775 87.1989 307.538 87.1989ZM286.456 85.9109C286.206 85.9109 285.989 85.7229 285.96 85.4679C285.929 85.1939 286.125 84.9459 286.4 84.9139C287.673 84.7679 289.028 84.6369 290.426 84.5259C291.315 84.4559 292.244 84.4199 293.189 84.4199L293.517 84.4219C293.793 84.4239 294.015 84.6499 294.013 84.9269C294.01 85.2029 293.749 85.4189 293.509 85.4219L293.189 85.4199C292.27 85.4199 291.367 85.4549 290.505 85.5229C289.118 85.6329 287.776 85.7629 286.514 85.9079C286.494 85.9099 286.475 85.9109 286.456 85.9109Z" fill="white"/>
<path d="M283.824 261.101C283.816 261.101 283.809 261.101 283.802 261.101C282.61 261.048 281.427 260.966 280.286 260.856C280.011 260.829 279.81 260.585 279.836 260.31C279.863 260.035 280.105 259.834 280.382 259.86C281.506 259.969 282.671 260.05 283.846 260.101C284.122 260.113 284.336 260.347 284.324 260.623C284.311 260.891 284.09 261.101 283.824 261.101Z" fill="white"/>
</g>
</svg>
